<?xml version="1.0" encoding="utf-8"?>
<!-- Generator: Adobe Illustrator 25.2.1, SVG Export Plug-In . SVG Version: 6.00 Build 0)  -->
<svg version="1.1" xmlns="http://www.w3.org/2000/svg" xmlns:xlink="http://www.w3.org/1999/xlink" x="0px" y="0px"
	 viewBox="0 0 595.28 841.89" style="enable-background:new 0 0 595.28 841.89;" xml:space="preserve">
<style type="text/css">
	.st0{fill:#EFE6C6;}
	.st1{fill:#FFFFFF;}
	.st2{fill:#0A080A;}
	.st3{fill:#0C0A0C;}
	.st4{fill:#080508;}
	.st5{fill:#080609;}
	.st6{fill:#F2EBD0;}
	.st7{fill:#141212;}
	.st8{fill:#11100F;}
	.st9{fill:#F3F2E7;}
	.st10{fill:#E7E6DF;}
	.st11{fill:#F2F0E2;}
	.st12{fill:#E6E5DD;}
	.st13{fill:#C1BEB5;}
	.st14{fill:#A09C9B;}
	.st15{fill:#A9A7A3;}
	.st16{fill:#B5B1B0;}
	.st17{fill:#9B9277;}
	.st18{fill:#ABACA2;}
	.st19{fill:#EFE8C9;}
	.st20{fill:#D2D2CD;}
	.st21{fill:#E9E5D3;}
	.st22{fill:#7D7D7D;}
	.st23{fill:#898787;}
	.st24{fill:#B1B0B1;}
</style>
<g id="Camada_1">
	<g>
		<g>
			<path class="st0" d="M0,607.75c0-124.92,0-249.84,0-374.76c196.91,0,393.81,0.01,590.72-0.09c3.72,0,4.56,0.83,4.56,4.54
				c-0.11,123.44-0.09,246.87-0.09,370.31c-1.72,0.92-3.57,0.46-5.35,0.46c-194.82,0.02-389.65,0.02-584.47,0
				C3.57,608.22,1.72,608.67,0,607.75z"/>
			<path class="st1" d="M0,607.75c198.39,0,396.79,0,595.18,0c-0.22,0.3,0.5,1.03-0.5,1c-1.32-0.04-2.64-0.01-3.97-0.01
				c-195.42,0-390.84,0-586.25-0.06C3.01,608.68,1.1,609.82,0,607.75z"/>
			<path class="st2" d="M365.27,447.61c3.24-2.49,6-5.27,8.56-8.61c6.36-8.33,1.12-16.75-6.63-21.97
				c-10.74-7.24-23.35-9.63-35.9-11.83c-3.41-0.6-6.86-1-10.28-1.55c-1.29-0.21-2.7-0.28-2.05-2.38c0.46-1.48,0.51-2.95,2.72-2.47
				c18.07,3.9,36.9,5.54,52.48,17.01c4.87,3.59,7.08,9,8.61,14.54c0.8,2.9,1.3,3.9,4.39,2.23c8-4.32,16.25-3.47,24.37-0.22
				c11.3,4.52,17.83,22.05,9.41,33.96c-5.78,8.17-12.98,14.71-22.76,17.84c-7.27,2.32-14.02,5.61-20.41,9.78
				c-4.2,2.74-6.85,6.97-10.66,10.04c-1.78,1.43-3.03,3.5-5.21,4.49c0.55-4.29,4.69-6.4,6.15-10.14
				c5.76-10.44,15.18-17.14,24.64-23.71c3.79-2.63,7.52-5.31,11.07-8.25c3.82-3.17,5.31-7.45,5.61-12.19
				c0.25-3.91-1.75-6.2-5.58-6.81c-8.71-1.38-18.31,4.83-20.34,13.51c-1.69,7.22-3.93,14.25-6.52,21.18
				c-2.02,5.42-4.5,10.58-8.3,15.02c-1.8,4.17-5.16,7.28-7.54,11.05c-3.7,1.73-5.94,5.15-8.37,8.05
				c-7.22,8.62-16.57,13.82-26.67,17.99c-12.53,5.17-25.67,7.97-38.89,4.26c-14.18-3.98-27.81-9.65-37.63-21.6
				c-1.87-2.28-4.38-4.02-6.36-6.21c-3.02-3.33-4.19-1.16-4.7,1.61c-1.22,6.6,0.86,12.41,5.28,17.3c7.6,8.41,17.22,13.46,28.22,15.9
				c23.82,5.27,47.25,4.21,69.89-5.28c5.13-2.15,9.64-5.79,14.87-8.29c-2.19,3.39-4.61,6.5-8.03,8.75
				c-13.64,9-29.07,12.31-44.98,13.56c-17.15,1.34-33.88-0.71-49.94-7.41c-8.14-3.4-14.63-8.57-19.81-15.55
				c-5.15-6.93-4.74-14.71,1.63-20.86c2.84-2.73,3.36-4.54,1.15-8.1c-11.45-18.4-18.17-38.32-20.31-60.06
				c-1.14-11.62,3.75-19.35,11.91-25.76c10.78-8.47,23.89-11.55,37.03-14.22c2.1-0.43,4.21-0.83,6.31-1.24
				c1.49-1.38,3.79-0.34,5.26-1.77c4.77-0.37,9.54-0.77,14.31-1.1c1.31-0.09,2.64-0.07,3.95,0.06c1.66,0.17,2.9,1.17,2.87,2.83
				c-0.05,2.07-1.91,1.2-2.97,1.26c-13.51,0.77-27.04,1.37-40.2,4.93c-5.89,1.59-11.73,3.42-17.11,6.31
				c-14.63,7.87-21.29,17.85-18.05,34.66c4.48,23.29,12.81,44.36,29.42,61.71c0.78,0.81,1.77,1.42,2.67,2.12
				c2.37,0.78,4.52,2.05,6.22,3.79c6.42,6.55,14.66,9.46,23.19,11.88c20.58,5.63,40.12,3.1,57.47-9.3
				c12.57-8.98,20.61-21.72,23.44-37.08c0.92-4.98,2.21-10.35-0.56-15.37c-2.47-2.6-5.52-1.65-8.34-1.15
				c-7.45,1.32-14.85,2.99-22.27,4.48c-4.65,0.93-9.05-0.19-13.55,0.08c-14.15,0.45-28.29,1.11-42.4-0.84
				c-10.62-1.47-21.27-3.23-31.08-7.51c-8.28-3.61-15.84-8.76-21.15-16.58c3.41,2.36,6.82,4.73,10.22,7.09
				c3.54,0.18,6.71,1.72,9.67,3.3c9.35,4.99,19.51,6.42,29.79,7.55c11.23,1.2,22.46,2.62,33.76,0.86c2.27-0.41,4.56-0.21,6.84-0.28
				c5.6-0.7,11.21-1.33,16.71-2.61c6.54-1.07,12.22-4.77,18.68-6.08C354.45,452.96,359.41,449.14,365.27,447.61z"/>
			<path class="st3" d="M311.62,396.23c0.55,5.95,0.16,11.5-6.7,15.02c0.53-2.15,0.89-3.62,1.25-5.09
				c-0.5-7.07-4.66-11.11-10.99-13.58c-3.06-1.2-5.93-2.86-8.84-4.4c-7.07-3.74-8.36-11.4-2.78-17.16c2.87-2.96,6.33-5.28,9.83-7.4
				c5.49-3.33,10.68-7.09,15.95-10.72c8.86-6.1,9.76-15.66,2.56-23.1c-5.15-5.32-14.5-5.87-20.31-1.23
				c-2.71,2.17-4.82,4.93-7.45,7.18c-1.01,0.6-1.92,1.36-2.59,2.28c-9.16,12.69-22.21,13.23-35.55,10.2
				c-9.4-2.14-18.17-11.25-17.92-19.93c-0.77-3.35-0.3-6.69,0.07-10.03c-0.48-3.05,1.22-5.31,2.75-7.65
				c6.11-9.3,13.95-15.24,25.9-14.44c8.66,0.58,17.41-0.03,25.84,2.79c1.87,0.63,3.93,0.15,5.89,0.32c4.83,0.63,9.66,0.68,14.5,0.12
				c8.4-1.39,16.28-3.67,22.04-10.68c4.27-5.2,4.54-10.84,2.4-16.66c-1.83-4.98-8.8-8.76-14.44-8.71c-4.49,0.04-7.42,2.55-9.65,5.94
				c-1.8,2.75-0.77,5.33,1.83,7.54c-0.91-2.09-1.11-4.13,0.02-6.07c1.12-1.92,2.79-3.23,4.87-3.98c3.98-1.45,9.67,0.54,12.11,4.49
				c2.5,4.05,2.74,8.54,0.65,12.74c-3.81,7.67-19.05,10.52-25.76,5.04c-0.54-0.44-0.85-0.98-0.81-1.69
				c-11.23-9.77-8.17-26.89,7.16-32.4c10.07-3.62,18.73-2.05,26.34,4.14c7.15,5.82,10.09,13.95,7.91,23.41
				c-0.61,2.63-1.6,5.06-3.1,7.2c-7.89,11.25-17.89,18.98-32.38,19.56c-12.29,0.49-24.38-1.26-36.52-2.6
				c-3.62-0.4-7.22-0.92-10.75,0.44c-3.41,1.89-7.4,2.56-10.24,5.71c-5.36,5.96-5.98,11.44-1.59,18.32
				c-5.46-6.45-2.74-15.97,4.61-20.82c0.88-0.58,2.02-1.35,3.11-0.15c-0.13,0.45-0.12,1.03-0.4,1.34
				c-8.66,9.56-6.18,17.82,4.87,24.32c8.03,4.73,12.9,1.6,18.64-2.68c4.11-3.07,7.69-6.69,11.1-10.44c2.23-2.46,4.88-4.13,7.74-5.63
				c1.03-1.56,2.52-2.12,4.32-2.03c3.82-0.65,7.65,0.08,11.47,0c9.54,0.85,15.47,6.42,18.25,15.06c3.08,9.57,0.97,18.32-6.56,25.27
				c-5.07,4.68-10.15,9.4-15.92,13.26c-1.53,1.02-2.82,2.27-4.1,3.56c-4.86,4.92-4.62,7.78,1.24,11.84c3,2.08,5.84,4.3,8.33,6.95
				C311.17,392.46,312.52,393.98,311.62,396.23z"/>
			<path class="st4" d="M234.29,450.14c4.16-12.87,14.4-18.72,26.43-21.84c28.07-7.29,56.11-7.67,83.8,1.97
				c6.66,2.32,13.03,5.42,17.61,11.18c0.95,1.2,1.79,2.35,1.82,3.93c-0.38,2.92-2.26,4.43-4.84,5.48c-3.46,1.4-6.65,3.51-10.55,3.61
				c-2.77-0.04-4.06-2.52-6.56-4.02c-2.93,5.95-7.38,10.12-14.26,10.98c-4.91,1.35-10,1.54-14.97,2.44
				c-3.81-0.32-7.57,0.59-11.36,0.5c-9.61-0.02-19.23,0.26-28.78-1.14c-11.67-0.71-22.53-4.38-33.08-9.1
				C237.55,453.24,234.92,452.91,234.29,450.14z"/>
			<path class="st3" d="M412.81,538.6c-7.08,16.18-19.38,27.08-34.49,35.86c-28.11,16.32-58.66,20.89-90.32,19.3
				c-23.28-1.17-46.39-4.87-67.76-14.8c-10.47-4.86-21.17-10.04-29.19-18.71c-6.26-6.76-10.06-14.97-13.51-23.68
				c-7.85-19.82,8.94-46.75,30.13-51.93c-0.31,1.49-1.64,1.87-2.68,2.55c-22.45,14.7-25.13,43.26-6.36,62.37
				c11.71,11.92,25.69,19.48,41.14,25.3c37.67,14.18,75.91,13.56,114.04,3.62c14.05-3.67,28.17-9.34,39.68-18.92
				c7.76-6.46,15.25-13.55,18.34-23.77C414.03,536.07,412.99,537.49,412.81,538.6z"/>
			<path class="st5" d="M254.91,511.87c2.33-1.71,3.65,0.66,5.07,1.52c10.02,6.06,21.13,7.56,32.49,8.2
				c1.15,0.07,2.32-0.06,3.47,0.04c13.81,1.12,21.19-8.28,22.42-20.74c0.89-9,1.78-17.99,5.24-26.49c0.25-2.56,2.14-3.7,4.22-4.21
				c9.37-2.32,18.86-4.09,28.41-5.43c2.61-0.37,5.32,0.07,6.63,3.03c1.49,17.81-4.92,32.6-17.21,45.24
				c-11.93,12.27-26.83,17.04-43.49,17.59c-6.74,0.22-13.45,0.07-19.96-2.03c-9.45-2.74-18.4-6.4-25.39-13.7
				C255.96,513.99,254.47,513.57,254.91,511.87z"/>
			<path class="st6" d="M296.26,287.37c7.97,4.64,17.52,4.13,23.12-1.13c3.4-3.19,3.74-7.2,3-11.35c-0.72-4.09-3.99-5.79-7.59-6.92
				c-1.64-0.51-3.24-0.34-4.83,0.29c-2.53,1-4.06,2.84-4.38,5.49c-0.35,2.92,2.38,3.07,4.93,4.53c-2.97,1.62-5.08,1.94-7.33-0.21
				c-3.25-3.1-3.79-7.34-1.28-10.6c3.56-4.64,10.56-7.67,15.56-5.65c5.91,2.39,11.53,5.67,12.91,12.84
				c1.72,8.99-2.59,16.67-12.57,21.58c-4.38,2.16-9.02,3.98-14.08,4.06c-5.11,0.69-10.22,0.65-15.33,0.02
				c-7.92,0.22-15.57-1.98-23.4-2.61c-13.96-1.13-26.18,0.02-34.39,15.43c-0.9,1.69-0.76,3.37-1.49,4.92
				c-0.73,3.6-0.72,7.21-0.01,10.81c5.27,14.78,15.97,21.99,33.97,19.2c8.96-1.39,14.32-7.69,20.27-13.35
				c2.04-0.68,3.17-0.36,2.31,2.11c-4.23,0.34-5.48,4.59-6.95,6.99c-3.3,5.38-8.32,4.79-12.91,5.76c-6.13,1.3-12.34,0.85-18.59,0.17
				c-9.74-1.07-17.49-9.45-20.41-19.24c-1.95-6.52-0.79-12.09,1.58-17.24c2.97-6.46,7.88-11.92,14.22-15.81
				c2.95-1.81,6.14-2.47,9.42-2.48c7.58-0.03,15.17,0.15,22.75,0.34c1.28,0.03,2.66,0.33,3.79,0.91c4.53,2.34,9.12,2.4,13.9,0.9
				c3.32-1.04,6.45-1.35,9.94,0.53c4.2,2.27,16.05-3.32,17.38-8.98c-6.79,8.68-14.16,2.78-21.08,2.9
				C296.71,291.62,296.02,289.89,296.26,287.37z"/>
			<path class="st7" d="M303.61,402.11c-0.12,0.8-0.25,1.6-0.37,2.39c-2.84-9.4-11.57-10.23-18.86-13.13
				c-2.14-0.85-4.3-1.74-6.25-2.94c-7.19-4.44-8.24-12.75-1.77-18.2c7.5-6.31,15.62-11.87,24.37-16.43
				c4.3-2.24,8.22-4.99,10.67-9.28c2.8-4.91,0.16-11.21-5.61-13.79c-5.69-2.54-11.13-0.4-13.06,5.18c1.68,0.94,2.61-0.88,3.98-1.09
				c3.33-0.51,6.03,0.38,7.25,3.64c1.25,3.34-0.32,5.77-3.3,7.29c-4.49,2.3-9.06,0.48-12.88-5c-2.84-2.65-2.18-5.77-0.49-8.42
				c3.33-5.22,8.31-7.9,14.62-7.34c6.82,0.61,11.89,4.14,14.16,10.55c2.07,5.85,0.95,11.42-4.13,15.59
				c-6.34,5.2-13.41,9.39-20.19,13.97c-2.86,1.93-5.85,3.69-8.45,5.95c-5.63,4.9-4.76,12.63,1.81,16.36
				c4.16,2.36,8.92,3.53,12.94,6.09C301.06,395.44,305.15,397.08,303.61,402.11z"/>
			<path class="st8" d="M311.62,314.02c-0.14-1.72,1.06-1.25,1.95-1.14c12.31,1.42,20.48,10.33,21.93,22.23
				c1.5,12.32-5.11,20.85-13.41,28.5c-3.25,3-7.08,5.37-10.47,8.23c-4.97,4.21-4.98,6.72-0.4,11.38c6.59,6.69,8,12.39,4.84,19.51
				c-0.78,1.75-1.05,1.88-2.74,1.31c0.31-4.49,1.22-9.18-3.06-12.5c-2.34-1.81-4.19-4.19-6.83-5.66c-1.28-0.71-2.44-1.71-3.46-2.78
				c-3.22-3.42-3.18-7.49-0.05-11.01c2.33-2.62,5.33-4.38,8.11-6.41c6.12-4.47,12.37-8.86,16.55-15.35
				c7.96-12.35,3.69-27.31-9.45-33.74C313.82,315.93,312.31,315.52,311.62,314.02z"/>
			<path class="st9" d="M311.62,314.02c10.15,1.61,15.34,8.58,17.74,17.59c2.71,10.18-1.08,18.6-8.67,25.74
				c-5.3,4.98-11.44,8.73-17.25,12.97c-6,4.37-6.06,8.89-0.45,13.73c1.62,1.4,3.3,2.74,5.02,4.02c5.51,4.09,9.62,8.62,5.32,15.95
				c-1.79-2.33,0.29-5.5-1.7-7.79c-2.42-4.67-6.42-7.8-10.6-10.77c-8.16-5.79-8.4-9.21-0.59-15.46c5.48-4.38,10.9-8.81,16.24-13.36
				c12.58-10.7,13.58-24.54,2.03-36.23c-2.5-2.53-6.17-2.97-9.26-4.45c-4.28-0.65-8.55-0.69-12.82,0.03
				c-1.28,0.37-2.57,0.74-3.85,1.1c-0.53-3.02,1.83-2.54,3.54-3.03C301.42,312.61,306.52,314.59,311.62,314.02z"/>
			<path class="st10" d="M303.61,402.11c-1.39-5.83-5.83-8.36-10.99-10.13c-3.89-1.33-7.84-2.59-11.05-5.3
				c-4.95-4.18-5.42-10.45-1-15.17c1.44-1.54,3.21-2.83,4.98-4c7.94-5.18,16.06-10.1,23.87-15.46c5.81-3.99,7.58-9.32,5.96-15.47
				c-1.43-5.42-6.69-9.61-13.12-10.45c-6.08-0.79-11.3,1.98-14.44,7.39c-1.46,2.52-1.51,4.82-0.04,7.25
				c-2.52-0.34-1.94-2.34-2.12-3.93c-0.11-1.42-1.02-1.97-2.31-2.11c2.99-3.73,6.18-7.28,10.66-9.26
				c7.98-3.54,17.49-0.65,21.64,6.45c4.63,7.92,2.72,16.57-5.09,22.05c-5.6,3.93-11.38,7.61-17.09,11.38
				c-3.3,2.18-6.6,4.35-9.29,7.29c-4.66,5.09-4.01,10.49,1.99,13.86c4.43,2.49,9.25,4.3,13.69,6.76c5.93,3.28,7.31,6.43,6.33,12.91
				C302.79,406.39,305.68,402.69,303.61,402.11z"/>
			<path class="st11" d="M362.2,468.28c-1.83-2.6-4.49-2.39-7.09-1.92c-8.19,1.5-16.36,3.13-24.54,4.66
				c-2.65,0.5-4.88,1.75-6.96,3.37c0.04-4.22-3.66-3.93-6.17-5.09c3.7-1.84,7.78-0.58,11.62-1.43c8.34-1.84,16.7-3.6,25.1-5.1
				c3.19-0.57,7-1.92,8.93,2.54C363.43,466.5,364.47,467.89,362.2,468.28z"/>
			<path class="st12" d="M254.91,511.87c8.05,6.76,16.43,12.96,26.8,15.81c0.14,1.09-0.18,1.64-1.37,1.14
				c-11.27-2.64-20.76-8.26-28.5-16.84C252.83,510.82,253.89,511.99,254.91,511.87z"/>
			<path class="st13" d="M250.82,310.19c-3.9,0.42-5.89,3.37-7.69,6.22c-2.01,3.17-1.97,6.79-1.16,10.43
				c0.75,3.39,4.22,5.19,5.33,8.88c-6.61-4.38-9.25-9.85-7.85-15.62c1.68-6.91,8.04-12.24,15.47-12.97
				C254.27,309.1,252.4,309.45,250.82,310.19z"/>
			<path class="st14" d="M234.29,450.14c11.69,6.51,24.15,10.75,37.46,12.39c0.25,0.19,0.34,0.38,0.27,0.58
				c-0.07,0.2-0.15,0.31-0.23,0.31c-14.11-0.12-26.86-4.68-38.75-11.95C233.45,451.03,233.87,450.59,234.29,450.14z"/>
			<path class="st15" d="M348.13,453.62c6.24-0.89,11.99-2.73,15.81-8.24c0.3,0.82,0.17,1.9,1.32,2.22
				c-4.67,4.05-10.17,6.42-16.14,7.8C348.35,455.06,347.79,454.6,348.13,453.62z"/>
			<path class="st16" d="M369,498.88c-1.94,3.5-5.54,5.79-7.1,9.57c-0.53,0.51-0.74,0.27-0.81-0.33c1.52-4.25,4.95-7.37,6.84-11.4
				C368.86,497.17,368.23,498.36,369,498.88z"/>
			<path class="st17" d="M412.81,538.6c-0.53-0.87,0.17-2.17-0.98-2.83c0.19-1.4,0.46-2.75,2.13-3.83
				C415.16,534.6,413.7,536.56,412.81,538.6z"/>
			<path class="st18" d="M276.95,399.19c-1.1,2.54-3.26,1.9-5.26,1.77C272.76,398.33,274.98,399.13,276.95,399.19z"/>
			<path class="st19" d="M369,498.88c-1-0.4-0.96-1.31-1.06-2.15c7.19-11.24,10.92-23.82,14.1-36.58
				c2.34-9.37,13.23-16.59,22.68-14.71c4.34,0.87,6.92,4.46,6.49,9.07c-0.56,6.04-3.03,11.02-8.05,14.63
				c-6.36,4.58-12.74,9.12-19,13.83C378.24,487.42,372.77,492.35,369,498.88z"/>
			<path class="st20" d="M280.34,528.83c0.46-0.38,0.91-0.76,1.37-1.14c16.94,3.72,33.51,2.88,49.2-4.92
				c20.21-10.05,32.55-32.59,31.28-54.48c0.96-0.79,0.68-1.95,0.9-2.96c3.15,8.03,1.05,15.89-1.36,23.49
				C350.64,523.8,312.92,538.97,280.34,528.83z"/>
			<path class="st21" d="M348.13,453.62c0.33,0.59,0.66,1.19,0.99,1.78c-6.24,1.94-11.98,5.39-18.62,6.14
				c-0.96,0.23-2.17,0.96-2.02-1.01c5.94-2.75,11.93-5.45,11.99-13.79C343.85,448.52,344.85,452.39,348.13,453.62z"/>
			<path class="st22" d="M271.79,463.42c-0.02-0.3-0.03-0.59-0.04-0.89c9.94,1.3,19.94,0.61,29.91,0.99c1.54,1,3.59-0.45,5.03,1.02
				C294.99,466.39,283.37,465.56,271.79,463.42z"/>
			<path class="st23" d="M328.49,460.54c0.67,0.34,1.35,0.67,2.02,1.01c-5.54,1.86-11.34,2.13-17.09,2.7
				c-0.33-0.23-0.43-0.44-0.3-0.63c0.12-0.19,0.25-0.28,0.37-0.28C318.48,462.41,323.48,461.47,328.49,460.54z"/>
			<path class="st24" d="M313.48,463.34c-0.03,0.3-0.05,0.61-0.06,0.91c-2.24,0.1-4.48,0.19-6.72,0.29
				c-1.6-0.72-3.57,0.38-5.03-1.02C305.6,463.46,309.54,463.4,313.48,463.34z"/>
			<path class="st0" d="M288.38,300.33c5.11-0.01,10.22-0.01,15.33-0.02C298.6,301.62,293.49,301.54,288.38,300.33z"/>
			<path class="st0" d="M296.62,316c4.27-1.68,8.55-1.56,12.82-0.03C305.17,315.98,300.89,315.99,296.62,316z"/>
			<path class="st0" d="M229.09,328.88c-1.52-3.61-1.51-7.21,0.01-10.81C229.1,321.67,229.1,325.27,229.09,328.88z"/>
		</g>
	</g>
</g>
<g id="Camada_2">
</g>
</svg>
