<svg width="95" height="107" viewBox="0 0 95 107" fill="none" xmlns="http://www.w3.org/2000/svg">
<path d="M74.7075 8.53846L52.355 33.8525L74.7075 59.7692L81.6238 62.7828V68.3077H56.1639V62.7828L63.5813 59.7692L46.2406 39.6787L28.8998 59.7692L36.3172 62.7828V68.3077H12.2607V62.7828L19.177 59.7692L41.73 34.3548L19.5779 8.63892L12.6616 5.72579V0H38.1215V5.72579L30.7041 8.63892L47.9446 28.7294L65.1851 8.53846L57.7677 5.52489V0H81.6238V5.52489L74.7075 8.53846ZM10.5698 95.9241C12.2758 96.2463 13.5492 96.6055 14.3898 97.002C15.2305 97.3985 15.7991 97.9188 16.0958 98.563C16.3925 99.1825 16.5409 100.062 16.5409 101.202C16.5409 102.614 16.2812 103.741 15.762 104.584C15.2676 105.402 14.3775 106.009 13.0917 106.405C11.8308 106.802 10.0383 107 7.7141 107C6.52731 107 5.37761 106.938 4.26503 106.814C3.15241 106.715 1.80491 106.529 0.222523 106.257V100.905H2.44775L3.52328 104.064C4.83369 104.287 6.2677 104.398 7.82537 104.398C9.35837 104.398 10.5081 104.324 11.2745 104.175C12.041 104.001 12.5602 103.729 12.8321 103.358C13.1288 102.961 13.2772 102.391 13.2772 101.648C13.2772 100.979 13.1413 100.484 12.8692 100.161C12.5973 99.8143 12.1893 99.5665 11.6453 99.4178C11.1261 99.2692 10.2114 99.0957 8.90089 98.8975L6.37897 98.4515C4.62354 98.1293 3.30076 97.7701 2.41067 97.3736C1.52057 96.9771 0.890092 96.4445 0.51922 95.7754C0.173077 95.0816 0 94.1153 0 92.8764C0 91.5135 0.234882 90.4357 0.704656 89.6428C1.19915 88.8499 2.0398 88.2676 3.22659 87.8959C4.41338 87.4995 6.08227 87.3013 8.23333 87.3013C10.3844 87.3013 12.9311 87.5491 15.8733 88.0446V93.2109H13.7222L12.7209 90.3118C11.089 90.0393 9.54381 89.903 8.08498 89.903C6.79935 89.903 5.81033 89.9897 5.11803 90.1632C4.42573 90.3366 3.9436 90.6092 3.67163 90.9808C3.39966 91.3525 3.26367 91.8852 3.26367 92.579C3.26367 93.2729 3.41202 93.7932 3.70872 94.1401C4.00542 94.4622 4.48755 94.7224 5.15512 94.9206C5.82266 95.0941 6.98479 95.3171 8.64128 95.5896C9.25944 95.6639 9.90225 95.7754 10.5698 95.9241ZM41.3287 104.435V106.48H35.6915V94.1772C35.6915 92.7154 35.3329 91.6622 34.616 91.018C33.9237 90.349 32.8976 90.0145 31.5377 90.0145C30.6724 90.0145 29.8194 90.126 28.9787 90.349C28.1628 90.572 26.9637 90.9685 25.3812 91.5384V103.32L27.9032 104.435V106.48H19.744V104.435L22.2659 103.32V83.25L19.744 82.2093V80.0908H25.3812V89.1225C26.6422 88.4783 27.8413 88.0198 28.9787 87.7473C30.1407 87.4499 31.3275 87.3013 32.5391 87.3013C34.0967 87.3013 35.3329 87.5491 36.2478 88.0446C37.1626 88.5154 37.8178 89.2835 38.2134 90.349C38.609 91.3897 38.8068 92.802 38.8068 94.5861V103.32L41.3287 104.435ZM53.5707 87.3013C56.4141 87.3013 58.6887 88.0941 60.3948 89.68C62.1255 91.241 62.9909 93.7312 62.9909 97.1506C62.9909 100.57 62.1255 103.072 60.3948 104.658C58.6887 106.219 56.4141 107 53.5707 107C50.7273 107 48.4403 106.219 46.7096 104.658C45.0036 103.072 44.1506 100.57 44.1506 97.1506C44.1506 93.7312 45.0036 91.241 46.7096 89.68C48.4403 88.0941 50.7273 87.3013 53.5707 87.3013ZM53.5707 89.9773C52.0872 89.9773 50.9004 90.188 50.0103 90.6092C49.145 91.0304 48.4898 91.7614 48.0447 92.802C47.6244 93.8427 47.4142 95.2923 47.4142 97.1506C47.4142 99.009 47.6244 100.459 48.0447 101.499C48.4898 102.54 49.145 103.271 50.0103 103.692C50.9004 104.113 52.0872 104.324 53.5707 104.324C55.0542 104.324 56.2287 104.113 57.094 103.692C57.9841 103.271 58.6393 102.54 59.0596 101.499C59.5047 100.459 59.7272 99.009 59.7272 97.1506C59.7272 95.2923 59.5047 93.8427 59.0596 92.802C58.6393 91.7614 57.9841 91.0304 57.094 90.6092C56.2287 90.188 55.0542 89.9773 53.5707 89.9773ZM95 87.8216V89.9402L92.8489 90.9808L87.6938 106.48H83.9109L79.7572 93.3596L75.6034 106.48H71.8205L66.6654 90.9808L64.5143 89.9402V87.8216H72.4139V89.9402L69.892 90.9808L73.8974 103.246L78.3849 89.0853H81.6115L86.0991 103.172L90.1416 90.9808L87.6196 89.9402V87.8216H95Z" fill="white"/>
</svg>
