<svg xmlns="http://www.w3.org/2000/svg" viewBox="0 0 5488.09 2684.93"><defs><style>.cls-1{fill:#c9ad88;}.cls-2,.cls-4,.cls-5{fill:#512817;}.cls-3{fill:#f4f4f4;}.cls-4,.cls-5,.cls-6{stroke:#000;stroke-miterlimit:10;}.cls-4{stroke-width:5px;}.cls-5{stroke-width:4px;}.cls-6{fill:#9e6f44;stroke-width:2px;}.cls-7{fill:#8c6239;}.cls-8{fill:#5d2410;}.cls-9{fill:#321401;}.cls-10{fill:#7b3a1a;}.cls-11{fill:#ac825f;}.cls-12{fill:#834b30;}</style></defs><g id="Camada_2" data-name="Camada 2"><g id="Camada_1-2" data-name="Camada 1"><path class="cls-1" d="M3628.51,1385.12c47.95,12.52,95.63,23.94,146.2,23,37.05-.67,70.87-15.16,107.06-17.48,4.22,20.52-.77,40.49-3.61,60.58-91.68,646.81-732.94,1081.89-1367.43,918.53-412.3-106.16-679.71-373.34-805.37-780.31-19.83-64.23-34.29-130.43-33-198.7,40.36,4,79,17.29,120.45,17.52,46.22.25,89-12.94,132.84-23,1.2,6.06,2.7,12.09,3.54,18.2,22.88,167.38,87.09,317.17,199,443.62,199,224.8,450.27,325.5,748.52,291.09,300-34.61,518.83-194.62,662.17-458.78C3588.68,1587.68,3613.79,1487.82,3628.51,1385.12ZM1886.09,1524c-1.77-18.49-10.74-31.48-31.11-31.77-18.39-.26-30.79,10-31.8,28.54-1,19.37,9.43,32.52,29.4,33.9C1872.74,1556.06,1883.13,1544.13,1886.09,1524Zm1816.23,26.91c19.07-2.39,30-14.39,28.68-33.73-1.23-17.54-11.69-29.84-31.24-29.39-20.46.48-31.14,12.55-30.82,32.18C3669.25,1539.93,3681.23,1550.25,3702.32,1550.9Z"/><path class="cls-1" d="M3849.19,1002c-31.38,2.06-60.27-12.07-91.89-12.41-58.7-.63-114.83,6.68-167.62,33.42-14.38-46.87-32.56-92.63-57.19-134.63-187.43-319.7-465.59-476.83-836.9-447.15-278.16,22.23-490.69,163-643.57,395.11-37.33,56.68-62.09,119.45-88.18,181.58-18.35.31-33.06-11.06-50-15.52-59.83-15.79-119.74-17.86-180.11-2.94-9.21,2.28-19.11,1.75-28.7,2.51.55-5.14.37-10.49,1.76-15.39,57.08-200.64,160.26-374.55,315.82-512.9C2334.2,196.56,2695.24,110,3095.71,226.27c341.76,99.24,576.87,324.94,715,651.86C3827.5,917.86,3844.09,958.29,3849.19,1002ZM1853.9,927c22.25-.79,32.12-12,32-32-.13-20.88-13.22-30.9-32.1-30.35-18.13.53-29.4,13.1-29.56,31.08C1824.05,915.23,1835.21,926.5,1853.9,927Zm1844-59.82c-17.86,1.19-29.18,11.45-29.61,31.71-.42,19.87,12.52,29,29.91,31.22,16.31,2.13,33.76-15.47,32.06-32.08C3728.42,880.58,3720,867.74,3697.85,867.21Z"/><path class="cls-2" d="M1672.4,1390.75c-1.33,68.27,13.13,134.47,33,198.7,125.66,407,393.07,674.15,805.37,780.31,634.49,163.36,1275.75-271.72,1367.43-918.53,2.84-20.09,7.83-40.06,3.61-60.58,12.87-17.23,34.38-20.62,51-33.79-.52,246.78-125.86,632.34-480.89,877.51-388,267.94-803.44,297.47-1220.31,79-378.87-198.58-575.68-528.15-616.72-958.61C1637.84,1368.62,1659,1373.11,1672.4,1390.75Z"/><path class="cls-2" d="M3849.19,1002c-5.1-43.67-21.69-84.1-38.48-123.83-138.13-326.92-373.24-552.62-715-651.86C2695.24,110,2334.2,196.56,2022.65,473.64,1867.09,612,1763.91,785.9,1706.83,986.54c-1.39,4.9-1.21,10.25-1.76,15.39-15.14,17.72-38.09,20.88-57.78,32.94,70.37-395.38,463.44-885.12,1091.91-905,645.07-20.44,1083.45,462,1169.25,908.27C3888.52,1020.75,3863.57,1021.6,3849.19,1002Z"/><path class="cls-2" d="M3628.51,1385.12c-14.72,102.7-39.83,202.56-89.58,294.25-143.34,264.16-362.17,424.17-662.17,458.78-298.25,34.41-549.56-66.29-748.52-291.09-111.92-126.45-176.13-276.24-199-443.62-.84-6.11-2.34-12.14-3.54-18.2,1-1.48,1.6-3.45,2.94-4.36,42.37-28.49,42.38-28.47,49.35,20.38,63,442,464.8,746.11,909.34,688.42,362.16-47,654.29-347.56,691-711.9,2-19.38,7.47-21.53,21.64-11.2C3609.2,1373.28,3622.31,1373.9,3628.51,1385.12Z"/><path class="cls-2" d="M1963.84,1017.88c26.09-62.13,50.85-124.9,88.18-181.58,152.88-232.16,365.41-372.88,643.57-395.11,371.31-29.68,649.47,127.45,836.9,447.15,24.63,42,42.81,87.76,57.19,134.63l-37.55,26.94C3403.35,678,3136.68,473.7,2730.79,486.73c-330.43,10.61-617.71,234.4-724.74,564C1991.18,1040.24,1972.32,1036.2,1963.84,1017.88Z"/><path class="cls-2" d="M3757.94,1364.57c-68.15-2.3-131.88-20.77-183.21-70.17-78.82-75.87-58.92-187.58,40.51-234.05,43.64-20.39,89.43-31,137-26.45,72.7,7,140.59,26.81,188.4,88.1,49.43,63.36,40.52,140.48-22.27,191.15C3872,1350.56,3817.7,1363.71,3757.94,1364.57Zm128.84-134.08c7.92.32,14.06,3.39,16.66-3.53,2.26-6-2.61-9.81-6.34-13.47-34.52-33.82-74.79-50.35-123.48-39.89-17.83,3.83-33,13.7-49.24,21.67-38.63,19-79.09,12.89-117.51-5.8-5.12-2.48-10-9.94-16.19-3.72-5.43,5.48-1.4,11.6,2.43,16.65,33,43.46,89.31,81.56,150.44,48C3790.93,1224.46,3836.7,1206.18,3886.78,1230.49Z"/><path class="cls-2" d="M1822.8,1032.93c56.28,2,111.55,15.63,157.23,55.82,58.55,51.5,66.06,128.54,15.23,187.8-62.77,73.17-146.6,94.34-239.1,85.35-41.43-4-80.49-18.21-114.32-43.94-78.09-59.37-79.93-158.1-4.44-221.62C1690.21,1051.9,1751.92,1033.81,1822.8,1032.93Zm25.62,229.2c50.9,3.33,83.27-24,111.86-58.48,4.15-5,8.16-11,4.33-16.82-5.1-7.7-10.52-.88-15.83,1.6-45.89,21.44-91.64,26.59-137-1.5-42.44-26.25-103.58-23.83-150.28,22.54-5.36,5.31-15.41,10.48-9.65,19.18,4.16,6.28,13.21,2,19.83-.4,46.1-16.93,89.38-10.87,128.36,18.31C1815.67,1258.3,1831.29,1264.87,1848.42,1262.13Z"/><path class="cls-2" d="M1886.09,1524c-3,20.14-13.35,32.07-33.51,30.67-20-1.38-30.45-14.53-29.4-33.9,1-18.58,13.41-28.8,31.8-28.54C1875.35,1492.51,1884.32,1505.5,1886.09,1524Z"/><path class="cls-2" d="M3702.32,1550.9c-21.09-.65-33.07-11-33.38-30.94-.32-19.63,10.36-31.7,30.82-32.18,19.55-.45,30,11.85,31.24,29.39C3732.36,1536.51,3721.39,1548.51,3702.32,1550.9Z"/><path class="cls-2" d="M1853.9,927c-18.69-.53-29.85-11.8-29.67-31.24.16-18,11.43-30.55,29.56-31.08,18.88-.55,32,9.47,32.1,30.35C1886,915,1876.15,926.24,1853.9,927Z"/><path class="cls-2" d="M3697.85,867.21c22.19.53,30.57,13.37,32.36,30.85,1.7,16.61-15.75,34.21-32.06,32.08-17.39-2.26-30.33-11.35-29.91-31.22C3668.67,878.66,3680,868.4,3697.85,867.21Z"/><path class="cls-3" d="M3886.78,1230.49c-50.08-24.31-95.85-6-143.23,20-61.13,33.52-117.41-4.58-150.44-48-3.83-5.05-7.86-11.17-2.43-16.65,6.15-6.22,11.07,1.24,16.19,3.72,38.42,18.69,78.88,24.82,117.51,5.8,16.21-8,31.41-17.84,49.24-21.67,48.69-10.46,89,6.07,123.48,39.89,3.73,3.66,8.6,7.43,6.34,13.47C3900.84,1233.88,3894.7,1230.81,3886.78,1230.49Z"/><path class="cls-3" d="M1848.42,1262.13c-17.13,2.74-32.75-3.83-48.43-15.57-39-29.18-82.26-35.24-128.36-18.31-6.62,2.44-15.67,6.68-19.83.4-5.76-8.7,4.29-13.87,9.65-19.18,46.7-46.37,107.84-48.79,150.28-22.54,45.41,28.09,91.16,22.94,137,1.5,5.31-2.48,10.73-9.3,15.83-1.6,3.83,5.81-.18,11.82-4.33,16.82C1931.69,1238.1,1899.32,1265.46,1848.42,1262.13Z"/><g id="Graosinhos"><path class="cls-2" d="M5337.81,49c61.16,30.18,111.62,73.27,138,139.42,40.56,101.61-23.61,195.2-133.35,196.57-48.17.6-94.26-8.6-135.75-32.36-63.37-36.29-117-82.35-135.36-157.89-18.93-78.1,21-144.71,99.05-165C5228.09,14.8,5283,25.2,5337.81,49Zm-172.63,69.08c-7.09-3.56-11.41-8.88-16.63-3.64-4.56,4.56-1.67,10,.23,14.88,17.51,45,47.39,76.69,96.07,87.23,17.82,3.86,35.74,1.12,53.79.53,43-1.41,77.38,20.85,104.69,53.71,3.63,4.37,5,13.19,13.22,10.06,7.2-2.76,6.05-10,4.64-16.17C5409,211.51,5373.41,153.6,5303.9,159,5250,163.11,5200.79,160.91,5165.18,118.12Z"/><path class="cls-2" d="M136.41,42.43c59.09-34,123-52,192.63-37.19C436.05,28,478.15,133.4,418.26,225.38,392,265.75,358.7,298.94,315.88,320.21c-65.41,32.49-133.53,51.49-206.5,24.7C33.94,317.22.77,247,27.33,170.84,46.94,114.58,86.12,74.72,136.41,42.43ZM97.83,224.33c-6.9,3.91-13.73,4.54-12.28,11.79,1.26,6.33,7.39,7,12.5,8.09,47.17,10.49,90.09,3.25,125.92-31.34,13.11-12.67,20.81-29.08,30.35-44.41,22.76-36.56,60.36-52.72,102.85-57.15,5.66-.59,13.77,3.14,15.72-5.39C374.6,98.4,368,95.33,362,93.07,311,73.61,243.11,71,208.91,131.74,182.4,178.82,153.19,218.52,97.83,224.33Z"/><path class="cls-2" d="M86.74,2587.07C38.38,2539,4.27,2482.09.29,2411c-6.1-109.24,84.53-177.53,189-143.89,45.86,14.77,86.62,38.17,118.38,73.9,48.53,54.58,84.74,115.33,78,192.77-6.92,80.07-65.94,130.5-146.43,124.87C179.85,2654.47,131.1,2627.12,86.74,2587.07Zm185.65-10.52c5.58,5.63,8,12.06,14.6,8.76,5.77-2.88,4.77-9,4.53-14.19-2.27-48.27-20.52-87.78-63.3-113.27-15.67-9.33-33.53-12.45-50.82-17.63-41.25-12.37-66.72-44.41-82.15-84.25-2-5.3-.58-14.11-9.32-13.74-7.71.32-8.93,7.54-9.55,13.85-5.39,54.32,9.91,120.54,77.51,137.6C206.28,2506.9,252.25,2524.66,272.39,2576.55Z"/><path class="cls-2" d="M5121,2386.5c47.17-49.25,103.44-84.4,174.48-89.69,109.1-8.12,179.05,81.23,147.35,186.3-13.92,46.12-36.56,87.31-71.7,119.72-53.68,49.53-113.74,86.86-191.3,81.6-80.18-5.44-131.69-63.52-127.55-144.1C5055.35,2480.84,5081.8,2431.59,5121,2386.5ZM5135,2571.92c-5.53,5.69-11.91,8.21-8.49,14.76,3,5.72,9.05,4.6,14.27,4.26,48.22-3.15,87.39-22.13,112.08-65.38,9.05-15.84,11.83-33.75,16.7-51.14,11.6-41.46,43.16-67.52,82.71-83.68,5.26-2.15,14.1-.85,13.57-9.58-.46-7.7-7.71-8.78-14-9.29-54.41-4.38-120.34,12.13-136.14,80C5203.39,2504.53,5186.48,2550.83,5135,2571.92Z"/></g><path class="cls-4" d="M2242.25,1757.89c-.22.13,1061,3,1061,11.81-.06,9.3-264.2,100-351.2,100-90,0-240,0-427-6-91-3-267.75-93-282.78-105.86"/><path class="cls-5" d="M2429.28,1614.79a.35.35,0,0,1-.05-.08c-70.17-126.67-71.1-270.11-68.18-414.63.65-32.38,13-38.67,41.27-38.53,229.85,1.1,449.58.8,679.44.44,25,0,53.39.35,50.84,36.32-1.61,22.79,18.66,21.89,34,25.54,126.15,30,172.87,128.91,133.05,257.74-41.62,134.64-112,168.38-214.28,148.9-25.42-4.84-10.89,70.21-104.11,70.21-113.79,0-444.29-6-472.13-7.26C2471.2,1691.79,2441.4,1634.2,2429.28,1614.79ZM3244,1393.35a2.17,2.17,0,0,0-.07-.24c-11.62-37.09-32-69.47-75.77-80.68-32.23-8.26-51.58-1.25-45.23,36.19,10.86,64-.11,125.18-13.92,186.58-4.28,19-12.33,28,3,39.6,14,10.66,29.73,2.31,41.62-2C3209.41,1552.65,3256.63,1460.1,3244,1393.35Z"/><path class="cls-1" d="M2980.25,1632.79c24.13,0,48-12.78,55-34.08,13.85-42.13,41.51-401.43,5.38-372.7-105.32,83.76-229.15-4.63-323.93,60.84-82.14,56.73-166.84,94.72-270.07,63.41a1.94,1.94,0,0,0-1.91.43l-.19.19a1.61,1.61,0,0,0-.5,1.36c8.58,68.23,11.39,173,43.42,240.83,9.5,20.1,30.73,33.33,54.5,33.87Z"/><path class="cls-6" d="M2793.59,1049.45c17.65-.49-70.34-144.6,16.73-271.56,49.8-72.6,31-133.92-78.49-242.62-8.92-8.86-23.49,5.76-19,17.5,51.47,134.75,54.17,169.85-.85,262.78C2662,900,2776.92,1049.91,2793.59,1049.45Z"/><path class="cls-6" d="M2655.24,892.33c-14.62-34.34-44.09-72-93.38-91.82-6.77-2.72-12.64,5.5-7.79,11,78.94,88.81,41.17,189-10.64,291.18-3.32,6.55,4.53,13,10.37,8.59C2639.64,1045.7,2674.69,938,2655.24,892.33Z"/><path class="cls-6" d="M2915.87,1080c2.77,6.62-4.73,12.69-9.8,7.93-69.78-65.59-87.25-132.3-59.16-215.22,14.8-43.71,64.25-85,94.44-107,5.63-4.11,12.4,3.07,8.76,9.27C2909.46,844.14,2860.11,946.91,2915.87,1080Z"/><path class="cls-7" d="M2979.17,1632.79c23.81,0,47.31-8.86,54.23-23.65,13.67-29.23,41-278.57,5.31-258.63-103.91,58.13-226.07-3.21-319.58,42.22-81.1,39.4-164.73,65.77-266.68,44a2,2,0,0,0-1.55.29h0a1.55,1.55,0,0,0-.7,1.55c8.41,47.36,11.26,119.78,42.76,166.71,9.37,14,30.32,23.13,53.77,23.5Z"/><path class="cls-2" d="M829.32,1672.8C702.05,1653.4,597.59,1591,511,1498.62,381.88,1361,308,1197.44,291.63,1009c-3-34.54-.54-69.13,14.25-101.82,12.16-26.87,32-42.72,61-47.92,21.7-3.89,43.58-4.71,65.49-5.45,6.08-.21,11.78,1,10.56-8.85-4.31-35,18.08-55.07,45-67.2C547,751.09,608.72,749.5,671.77,764.58c30.86,7.39,61.44,14.93,91.08,26.37,59.89,23.14,113.28,56.87,163.37,96.74,26,20.67,50.94,42.08,72.8,67a13,13,0,0,1-11.68-2.42c-25.82-20.22-52.28-39.27-80.92-55.64-67.29-38.43-136.89-69.92-214.55-80.23-4.9-.65-10.57-.76-9.88-7.24,1.34-12.54-3.26-18-16.12-19.29-10.54-1.1-20.9-5-30.57,1.86-15.75,11.12-33.08,17.91-52,21.5-6.71,1.28-15.15,1.75-18.32,9.19-10.36,24.24-19.12,49-16.92,76.51,7.75-8.27,13.56-17.52,20-26.29,13.15-17.84,29.71-30.3,52.86-31.53-.28,1.74-.22,3.65-.91,5.21-17.37,39.18-14.63,76.82,13.67,109.25,55.69,63.82,113.47,125.95,164.57,193.54,46.23,61.14,108.7,99.65,174.91,134,3.91,5.65,5.1,14.13,14.57,14,6.22,10.17,17.72,16.38,21.4,28.46-2.37,4.08-4.21,8.63-7.23,12.15-5.41,6.29-11,13.63-20.35,4.71-29.51-28.27-62.54-52.18-94.71-77.23-54.17-42.19-95-96.84-137.76-149.73-31.54-39-60.6-81-102-110.27-56.64-40-111.77-81.42-159.76-131.72-1.2-1.26-2.93-2-4.87.85,9,29.45,22.39,57.73,36.23,85.63,21.26,42.84,44.27,84.81,66.53,127.15-23.72-12.76-38.61-33.92-50.65-56.69-8.44-15.93-17.36-30.49-33.17-39.78-16.37-9.62-25-23.19-26.88-42.69-2.78-29.32-5.4-31.13-31.46-35.45-1.9-10.3-6.58-12.86-15.91-6.73C414,914.43,403,924.59,398.91,940.48c-5,.23-9.07,1.83-12,6.27-9.93,14.85-18.53,30.21-22.16,48-6.37,31.17-4.05,62.26,0,93.42,5.19,40.11,15.13,78.63,35.89,113.83,8.45,14.31,15.28,29.3,17.38,46.13a434.52,434.52,0,0,0,22,91.07c5.8,16.37,14.5,31.43,29.06,41.58a79.44,79.44,0,0,1,23.16,24c7.07,11.6,13.08,24,21.29,34.73,42.18,55.16,89.6,105.4,146,146.18,26.67,19.28,54.41,37.67,83.63,52.62,23.3,11.91,49,19.88,74.89,25.61C826.07,1665.73,827,1666.39,829.32,1672.8Z"/><path class="cls-2" d="M829.32,1672.8c-2.33-6.41-3.25-7.07-11.31-8.84-25.93-5.73-51.59-13.7-74.89-25.61-29.22-14.95-57-33.34-83.63-52.62-56.43-40.78-103.85-91-146-146.18-8.21-10.73-14.22-23.13-21.29-34.73a79.44,79.44,0,0,0-23.16-24c-14.56-10.15-23.26-25.21-29.06-41.58a434.52,434.52,0,0,1-22-91.07c-2.1-16.83-8.93-31.82-17.38-46.13-20.76-35.2-30.7-73.72-35.89-113.83-4-31.16-6.36-62.25,0-93.42,3.63-17.79,12.23-33.15,22.16-48,3-4.44,7.06-6,12-6.27,2,15.3-5.5,28.06-13.41,39.38-22.79,32.64-17.65,65.9-3.38,98.9,10.78,24.91,24.66,48.47,32.63,74.64-.12,3.33.16,6.49,3.59,8.27l0-.25c-1.05,6.68,1.24,12.76,2.95,19.09,23,85.33,62.3,162.72,114.27,233.88a701,701,0,0,0,71.68,83.08c23.79,23.68,50.88,44,75.86,66.54,28.19,25.41,57.75,47.63,93.52,62.41,47.8,19.74,96.21,20.66,143.71,6,64.22-19.79,119.13-56.28,163.59-107.42,3.21.24,6-.33,7.56-3.59,12.9,3.71,25.65,8.08,38.73,10.91,11.58,2.5,4.82,8.44,3.63,13.55-14.58,2.37-29.25,5.17-43.93,1.92-8.12-1.8-10,2.51-12.44,8.53-34.77,87.08-120.13,127.79-207.76,120.89C856.23,1676.17,842.79,1674.3,829.32,1672.8Z"/><path class="cls-2" d="M1182.07,1241.61c-18.12-51.62-44.53-98.76-72.28-145.35-29.16-49-65.28-92.59-103.93-134.23-5.84,3.17-3.13-1.56-3.43-3.5l-3.69-3.74a12.94,12.94,0,0,1-11.4-2.47c-25.82-20.22-52.28-39.27-80.92-55.64-67.29-38.43-136.89-69.92-214.55-80.23-4.9-.65-10.57-.76-9.88-7.24,1.34-12.54-3.26-18-16.12-19.29-10.54-1.1-20.9-5-30.57,1.86-15.75,11.12-33.08,17.91-52,21.5-6.71,1.28-15.15,1.75-18.32,9.19-10.36,24.24-19.12,49-16.92,76.51,7.75-8.27,13.56-17.52,20-26.29,13.15-17.84,29.71-30.3,52.86-31.53v.05c1.29-2.72,2.51-2.21,3.71.06,77,6.64,150,28.14,220.22,60,4.24,1.92,8.16,4.63,12.47,6.34a7.6,7.6,0,0,1,3.92,3.57,4.86,4.86,0,0,1,1.16.41c6.15,3.16,10.75,8.14,16.43,11.93a4.92,4.92,0,0,1,3.06,1.33,19.43,19.43,0,0,0,2.16,1.67c3.66,1.86,7.55,3.46,11.2,5.11,10.49,4.75,21.52,8.56,30.32,16.26a4,4,0,0,1,1.06,1.45l.9,1.08c60.91,41.8,107.78,96.83,148.94,157.32,25.18,37,46.17,76.28,60.9,118.7,20.12,1.07,1.19,14.92,6.79,20.74,24,48.25,37.91,99.58,46.74,152.52,3,18,6.44,36,11.42,53.45,3.06,10.73,1.55,21.72,3.49,33.49,12.51-11.41,5.82-30,18.86-39.49l0,0C1213.79,1392.36,1186.76,1255,1182.07,1241.61Z"/><path class="cls-7" d="M1224.72,1447.1c-1.36,52.26-35.06,88.9-90.85,98.79,1.19-5.11,8-11.05-3.63-13.55-13.08-2.83-25.83-7.2-38.73-10.91,5.3-25.13-3.9-47.89-11.59-70.89-3.48-24.08-11.72-46.09-28.12-64.54,4.65-19.57,19.9-32.77,29.53-49.33,12.28-21.1,38.24-30,47-54.24,4.35-12.11,10.55-23.55,15.91-35.3,24,48.25,37.91,99.58,46.74,152.52,3,18,6.44,36,11.42,53.45,3.06,10.73,1.55,21.72,3.49,33.49,12.51-11.41,5.82-30,18.86-39.49"/><path class="cls-8" d="M1005.86,962c-6.17,3.35-2.79-2.12-3.5-3.8Z"/><path class="cls-8" d="M1002.6,958.7l-4-4.06Z"/><path class="cls-7" d="M1084,1525c-44.46,51.14-99.37,87.63-163.59,107.42-47.5,14.64-95.91,13.72-143.71-6-35.77-14.78-65.33-37-93.52-62.41-25-22.52-52.07-42.86-75.86-66.54a701,701,0,0,1-71.68-83.08c-52-71.16-91.23-148.55-114.27-233.88-1.71-6.33-4-12.41-2.95-19.09,8.22,6.56,7.52,19.13,16.85,26.07,4.35-28.58,5.26-56.5,9.12-83.85,4.76-33.67.91-61.59-22.41-88.55-25.07-29-22.4-41.51,4.47-70.23,8.68-9.27,16.09-19,16.68-32.36,26.06,4.32,28.68,6.13,31.46,35.45,1.85,19.5,10.51,33.07,26.88,42.69,15.81,9.29,24.73,23.85,33.17,39.78,12,22.77,26.93,43.93,50.66,56.69,19,22.55,32.89,49,53.9,70.05,3.1,3.1,4,7.14,3.7,11.46-17.32-5.47-26.35-20.87-38.52-32.44-6.84-6.5-12.67-14.07-21.6-18-8.41-3.73-19.63-6.59-25.17-.87-7,7.23,4.75,13.71,7.7,20.77,1.09,2.6,3.63,4.59,5.48,6.9,28.22,35.24,61.88,64.92,97.16,92.65,24.92,19.6,46.82,42.92,74,59.63l3.83,3.23,1.31.86-1.5-.67-3.2-3.86c0-4.46-3.08-7.38-5.06-10.93-13.61-24.46-34.37-44.32-45.27-70.5,2.71.92,6,1.13,8,2.87,73.77,64.41,155.48,117.82,237.06,171.41,2.24,1.47,3.14,3.31,2,6-14.75,3.68-30.72,2.06-44.83,8.75-16.58,7.86-32.86,15.49-53.82-3.52,10.17,28.35,1,48.28-8.76,68-4.45,9-10.4,17.38-14.12,26.66C802.9,1532.17,800,1569.3,816,1607.48c-11.37-32.34,7-50.35,29.51-67.12,7.43-5.56,15-12.11,18.4-21.32,6.22-16.74,19.94-25.85,34-34.74,9-5.68,18.21-11.07,27-17.14,32.93-22.83,36.71-20.85,42,19.78,1.93,14.76,7.93,28.22,23.22,39.63-.47-5.72-.44-7.44-.76-9.09-3.64-18.82-2.27-37.83-1.26-56.68.77-14.57,13.15-25.21,20.48-19.09C1037.53,1465.89,1066.1,1490.68,1084,1525Z"/><path class="cls-7" d="M924.51,947.81c62.83,42.11,110.81,98.22,152.85,160,25.19,37,46.17,76.28,60.9,118.7-7.81,2.32-15.5,5.21-23.45,6.87-29.5,6.19-53.87,19.13-69.52,46.55-9.54,16.72-19.51,33.59-35.25,45.76-3.69-12.09-165.18-98.61-210.88-176.41-51.11-67.59-108.88-129.72-164.58-193.55-28.29-32.42-31-70.06-13.67-109.24.7-1.57.63-3.47.92-5.22v.06l3.7.06c77,6.64,150,28.13,220.22,59.94,4.25,1.93,8.16,4.64,12.48,6.35"/><path class="cls-9" d="M1009.19,1325.57c15.75-12.16,25.72-29,35.26-45.76,15.64-27.42,40-40.36,69.51-46.54,8-1.67,15.65-4.56,23.46-6.88,20.12,1.07,1.19,14.92,6.79,20.74-5.36,11.75-11.56,23.19-15.91,35.3-8.73,24.27-34.69,33.14-47,54.24-9.63,16.56-24.88,29.76-29.52,49.33-8.12,2.59-16,11-11.77,16.11,13.37,16.06,22.29,35.91,39.88,48.43,7.69,23,16.89,45.76,11.59,70.89-1.54,3.26-4.35,3.83-7.56,3.59-17.85-34.34-46.42-59.13-75.4-83.31-7.33-6.12-19.71,4.52-20.48,19.09-1,18.85-2.38,37.86,1.26,56.68.32,1.65.29,3.37.76,9.09-15.29-11.41-21.29-24.87-23.22-39.63-5.32-40.63-9.1-42.61-42-19.78-8.74,6.07-18,11.46-27,17.14-14.08,8.89-27.8,18-34,34.74-3.43,9.21-11,15.76-18.4,21.32-22.46,16.77-40.88,34.78-29.51,67.12-16-38.18-13.06-75.31,1.62-111.94,3.72-9.28,9.67-17.64,14.12-26.66,9.73-19.73,18.93-39.66,8.76-68,21,19,37.24,11.38,53.82,3.52,14.11-6.69,30.08-5.07,44.83-8.75,1.18-2.68.28-4.52-2-6-81.58-53.59-163.29-107-237.06-171.41-2-1.74-5.33-2-8-2.87l.07-.07-4-3.38a228,228,0,0,0-35.63-35.18,3.88,3.88,0,0,0-3.72-3.94l-5.93-4.18c.3-4.32-.61-8.36-3.71-11.46-21-21-34.9-47.5-53.9-70.05C563,1044.77,540,1002.8,518.71,960c-13.84-27.9-27.27-56.18-36.23-85.63,1.94-2.84,3.67-2.11,4.87-.85,48,50.3,103.12,91.73,159.76,131.72,41.43,29.24,70.49,71.23,102,110.27,42.72,52.89,83.59,107.54,137.76,149.73,32.17,25,65.2,49,94.71,77.23,9.31,8.92,14.94,1.58,20.35-4.71C1005,1334.2,1006.82,1329.65,1009.19,1325.57Z"/><path class="cls-1" d="M443.08,912.5c-.59,13.35-8,23.09-16.68,32.36-26.87,28.72-29.54,41.23-4.47,70.23,23.32,27,27.17,54.88,22.41,88.55-3.86,27.35-4.77,55.27-9.12,83.85-9.33-6.94-8.63-19.51-16.85-26.07l0,.25a9.07,9.07,0,0,0-3.59-8.27c-8-26.17-21.85-49.73-32.63-74.64-14.27-33-19.41-66.26,3.38-98.9,7.91-11.32,15.4-24.08,13.41-39.38,4.12-15.89,15.07-26.05,28.25-34.71C436.5,899.64,441.18,902.2,443.08,912.5Z"/><path class="cls-10" d="M414.76,1153.4a9.07,9.07,0,0,1,3.59,8.27C414.92,1159.89,414.64,1156.73,414.76,1153.4Z"/><path class="cls-8" d="M624.68,841.27l-3.71-.06C622.26,838.49,623.48,839,624.68,841.27Z"/><path class="cls-8" d="M1079.92,1450.54c-17.59-12.52-26.51-32.37-39.88-48.43-4.28-5.14,3.65-13.52,11.77-16.11C1068.2,1404.45,1076.44,1426.46,1079.92,1450.54Z"/><path class="cls-1" d="M652.51,1176.74a228,228,0,0,1,35.63,35.18l4,3.38-.07.07c10.9,26.18,31.66,46,45.27,70.5,2,3.55,5.1,6.47,5.06,10.93l-.44.44c-27.22-16.71-49.12-40-74-59.63-35.28-27.73-68.94-57.41-97.16-92.65-1.85-2.31-4.39-4.3-5.48-6.9-3-7.06-14.71-13.54-7.7-20.77,5.54-5.72,16.76-2.86,25.17.87,8.93,3.95,14.76,11.52,21.6,18,12.17,11.57,21.2,27,38.52,32.44l5.94,4.18Z"/><path class="cls-11" d="M745.77,1300.47l-3.83-3.23.44-.44,3.2,3.86Z"/><path class="cls-11" d="M745.58,1300.66l1.5.67-1.31-.86Z"/><path class="cls-10" d="M692.12,1215.3l-4-3.38Z"/><path class="cls-10" d="M652.51,1176.74l-3.72-3.94A3.88,3.88,0,0,1,652.51,1176.74Z"/><path class="cls-7" d="M4653.58,714.63c66.83-23,118.41,9.74,145.52,59.38-10.14.66-14.29-6.81-18.89-13.78-1.56-2.38-3.21-5.62-6.82-3.67-3.14,1.7-3,5.15-1.82,7.86,4,9.17,4.14,18.37,1.14,27.76-3.42,6.15-10.29,7.51-15.58,11.05-14.22,9.51-27.72,19.72-36.13,35.18-9.1-1.12-13.11,5.53-17.52,11.52s-7.93,13-17,12.38c.2-13.6,9.85-24,12.5-36.76,1.64-4.77,4.47-9.27,3.36-14.93-6.8,2-8.19,7.48-9.38,13.16-7.58,17.16-14.94,34.42-22.79,51.45-16.67,36.14-33.59,72.17-50.41,108.25-25.93-7.36-42.69,2.88-51.79,32.84,14.75-.78,25.34-18.15,41.18-9.83l-23.94,55.75c-14.05-6.58-23.91-17.18-29.83-31.43-5-12-9.4-24.22-14.7-36.06-3-6.79-4.48-16.94-12.85-17.86C4510.58,975,4492,976,4480,989.83c-16.8,19.37-37.57,32-59.37,44.23-15.49,8.71-30.67,20.41-34.08,38.84-2.95,15.89.9,32.91-9.25,47.76-1.35,2,1.66,7.86,3.84,11.14,18.09,27.26,71.23,47.32,107.49,39.63-5.73-1.67-9.66-2.84-13.61-4-19.66-5.66-34.91-14.13-32.17-39.15,1-9.43-7.32-15.77-16.06-19.25a136.41,136.41,0,0,0-17-5.1c-6-1.51-8.86-5.28-9.53-11.27-.63-5.67,2.46-8.84,6.91-11.25,7.8-4.22,15.5-8.23,24.33-10.55,21.28-5.61,44.51-5,62.34-22,7.63-7.31,20.14-6.57,28.4,0,17.52,13.87,38.91,16.87,58.85,24q-29.17,82.83-54.6,166.89c-3.91,13-8.09,25.8-13.74,38.33-13.6,30.16-26.94,60.73-27.37,94.7-.09,7.21-2.73,18.64,5.35,20.58,8.56,2,10.37-9.84,13.3-16.1,28.11-59.94,50.52-122.17,74-184,14.29-37.63,22.26-77.37,39.65-113.84,5.88,2.31,5.12,6.76,4.32,11.77-8.67,53.92-23,106.84-47.7,155-29.48,57.49-49.53,118.26-71.55,178.33-17.27,47.14-58.53,79.63-109.07,79.07-10.36-33.15-28.29-63.11-37.53-97.07-19.8-72.84-28.18-145.76-14.78-220.56,9.84-55,25.71-107.86,52-157.35a712.13,712.13,0,0,1,104.71-148.51c47.22-51.38,98.32-98.19,154.32-139.7C4673.26,724.93,4673.45,725.16,4653.58,714.63Z"/><path class="cls-2" d="M4311.25,1127.11c1,.31,1.93.59,2.9.86-2,8-4.92,16-6,24.13-8.25,62.82-12.31,125.81-3.48,188.92,5.9,42.22,13.63,84.18,34.69,122,5.08,9.12.55,9.25-5.31,11.56-5.53,2.18-13.87,2.38-10.77,12.53,4.22,13.79,8.65,26.58,24,33,14.15,5.9,28.74,13.3,37.65,25.88,11.4,16.1,25.85,16.24,41.89,12.82,15-3.21,29.94-7.06,44.66-11.43,5.69-1.69,12.8-2.93,14.9-12.1-12.2-.58-23.92-.37-35.42-1.86-22.56-2.92-43.7-9.24-57.24-29.8,50.54.56,91.8-31.93,109.07-79.07,22-60.07,42.07-120.84,71.55-178.33,24.7-48.17,39-101.09,47.7-155,.8-5,1.56-9.46-4.32-11.77,19.58-73.41,45-145,68.74-217.07,9.11.58,12.67-6.43,17-12.38s8.42-12.64,17.53-11.52c-14.61,32.21-29.75,64.08-39.62,98.33-14.25,49.45-24.47,99.5-33.49,150.22-12.88,72.47-46.1,138.59-75.73,205.53-17.89,40.42-36.61,81.19-40.75,125.43-5.59,59.69-16,118-34,175.13-1.44,4.55-2.16,9.33-3.22,14,37.46-40.77,72-82.6,103-127.32,14.68-21.19,26.14-44.66,44.46-63.28,4.3,8,0,15.4-3,21.85-8.3,18-14,37.44-27.28,52.93-7.37,8.58-10.65,18.29-12.38,30-3.41,23.18-8.56,46.88-34.83,57-8.63,3.32-16.23,8.9-15.13,19.35,1.16,11,5.67,20.52,18,23.54l5.93,5.38c1.54,4.51,5.64,5.18,9.45,6.28,25.71,18.65,54.36,14.62,81.89,8,63.39-15.26,112.6-55.16,154.89-101.55,29.22-32.06,53.94-67.22,90.89-92.42,35.24-24,62-56.58,68.13-101.74.83-6.09,4.74-12.08,8.26-17.43,22.89-34.84,37.55-73.47,51.42-112.34,15-42,23.38-85.66,26.18-129.94,2.69-42.66,5-85.69-8.32-127.61-1.91-6-7.78-13-.85-19.79,20.37,39.39,26.54,82.35,31.52,125.6.65,5.61-1.65,11.94,4.21,16.18-4.82,55.6-5.38,111.8-23.48,165.52-29.95,111.78-88.79,207.45-164.67,293.38-30.48,34.51-62.5,67.61-99.14,95.83-41.43,31.9-82.73,64-132.38,82.79A218.54,218.54,0,0,1,4628,1728.7c-39.36,6.35-71.21-5.78-94.87-38.21-9.34-12.8-18.43-25.79-27.7-38.65-2.84-3.95-3.26-8.91-11.33-3.16-26.27,18.73-54.22,13.59-80.63-.26-42.12-22.1-72.34-56.86-93.31-98.48-70.17-139.22-62.65-280.68-8.95-422.83"/><path class="cls-2" d="M4572.89,1626.52l-5.93-5.38c11.65-29.45,32-53.66,48.27-80.33,19-31.23,42.63-61.1,47.22-98.26,3.22-26.11,7.93-51.45,16.33-76,12.28-36,17.12-73.79,28.19-110,1.06-3.48,1.6-6.94-.57-10.25l2.65-10.16c3.76-1.37,4.75-4.75,6.32-8,17.47-35.85,24-75.21,36.65-112.61,4.75-14.07,3.93-28,.51-41.88-4.91-19.89-10.55-39.6-15.88-59.39h0c1.41-3.77,3-7.53.11-11.33q2.19-23.54,4.37-47.06c6.45,5,8.78,1.83,10.64-4.69,6.56-23,20.61-42.34,32.09-62.92,7.47-13.39,14.59-27,22.46-40.13,8-13.4,8.61-29.19,7.49-42.82-.76-9.35-18.49-5.55-27.64-10.44l-13.48-2.61c3-9.4,2.85-18.6-1.14-27.77-1.19-2.71-1.32-6.16,1.82-7.86,3.61-1.95,5.26,1.29,6.82,3.67,4.6,7,8.75,14.44,18.89,13.78a1.12,1.12,0,0,1-.16.1c-7.22,15.1,2.92,17.9,14.15,20.36,14.08,3.1,27.69-2.4,41.48-2,52,1.61,98,18.67,136.17,55,5.44,5.18,10.18,12,19.16,11.37l.13-.21c-2.45,6-1.79,9.48,5.88,7.33a2.17,2.17,0,0,1,1.15,1.33c-11.76,17.85,6.12,15.71,13.79,20.46l-.12-.24c-4,13.47-1.31,23.39,14,26.68l4.31,10.36c-1.49,5.8-4.17,12.08,5.48,13.28a2.33,2.33,0,0,0,.28.11c-6.93,6.83-1.06,13.79.85,19.79,13.32,41.92,11,85,8.32,127.61-2.8,44.28-11.22,88-26.18,129.94-13.87,38.87-28.53,77.5-51.42,112.34-3.52,5.35-7.43,11.34-8.26,17.43-6.13,45.16-32.89,77.71-68.13,101.74-36.95,25.2-61.67,60.36-90.89,92.42-42.29,46.39-91.5,86.29-154.89,101.55-27.53,6.63-56.18,10.66-81.89-8,28.52-5.66,54.88-16.75,79.59-31.92,11.07-1.52,22.61-2.31,31-10.83a156.69,156.69,0,0,1,25.75-21.25c4.58,1.56,7.66-1,11.23-3.4,54.57-36.88,106.06-77.44,147.32-129.26,21.69-27.25,41.16-56.26,61.53-84.55,5-6.9,8.33-13.77-6.73-17,14.14,1.79,19.47-6.2,23.68-14.56,12.71-25.26,23.51-51.35,34.3-77.5,24.31-58.91,39.08-120.41,48.23-182.94,12.68-86.68-22.92-152.57-94.73-200.42-6.07-4-11.06-6.76-19.37-4.25-20.64,6.22-31.56,18.77-30.54,41.11.73,16.19-3.51,28.86-17.49,38.07-4.24,2.79-6.79,8-10.41,11.87-20.37,21.52-24.82,52.85-47.22,73.89-9.68,9.1-11.66,8.42-17.25-.89-1.58-2.63-1.77-7.18-8.45-6.47,1.58,15.13,1.45,30.62-2.07,45.27-14.75,61.51-30.53,122.77-46,184.11-10.53,41.78-19.77,83.63-23.8,126.79-1.95,20.88-.24,43.29-9.68,62.74-23.41,48.26-47.41,96.28-74.93,142.41C4621.37,1598.78,4596.12,1611.44,4572.89,1626.52Z"/><path class="cls-2" d="M4393.7,1503.56c13.54,20.56,34.68,26.88,57.24,29.8,11.5,1.49,23.22,1.28,35.42,1.86-2.1,9.17-9.21,10.41-14.9,12.1-14.72,4.37-29.64,8.22-44.66,11.43-16,3.42-30.49,3.28-41.89-12.82-8.91-12.58-23.5-20-37.65-25.88-15.32-6.39-19.75-19.18-24-33-3.1-10.15,5.24-10.35,10.77-12.53,5.86-2.31,10.39-2.44,5.31-11.56-21.06-37.79-28.79-79.75-34.69-122-8.83-63.11-4.77-126.1,3.48-188.92,1.07-8.17,3.95-16.1,6-24.13,8.15-9.25,12.6-19.43,8-31.87.93-1.93,1.87-3.85,2.8-5.77,14.63-6.13,15.32-19.48,16.82-32.42l3.08-10c15-2.81,13.56-15.19,15-25.87l1.83-6.3c4.77.54,9.23.82,5.25-6.13.6-2.2,1.19-4.39,1.79-6.58,15.33-3.34,17.81-15.66,19.79-28.33a5.4,5.4,0,0,1,1.45-2.77c.5-.22,1.44-.5,1.42-.65a17.53,17.53,0,0,0-.73-2.71c33.78-62.32,80.55-114.35,130.52-163.73,23.19-22.91,49-42.68,75.51-61.79,17.6-12.73,39.43-16,56.89-28.41,19.87,10.53,19.68,10.3-1.15,25.74-56,41.51-107.1,88.32-154.32,139.7a712.13,712.13,0,0,0-104.71,148.51c-26.3,49.49-42.17,102.39-52,157.35-13.4,74.8-5,147.72,14.78,220.56C4365.41,1440.45,4383.34,1470.41,4393.7,1503.56Z"/><path class="cls-2" d="M5009.9,858.87c-9,.59-13.72-6.19-19.16-11.37-38.15-36.34-84.13-53.4-136.17-55-13.79-.42-27.4,5.08-41.48,2-11.23-2.46-21.37-5.26-14.15-20.36,5.1,11.8,13,13.79,26.09,12.45,70.1-7.16,131.34,12.27,180.22,64.9C5007.2,853.56,5008.37,856.38,5009.9,858.87Z"/><path class="cls-2" d="M4341.75,1057.91c-1.5,12.94-2.19,26.29-16.82,32.42C4329.47,1079,4330.77,1065.93,4341.75,1057.91Z"/><path class="cls-2" d="M4311.25,1127.11c2.93-10.58,4.7-21.57,10.88-31,4.63,12.44.18,22.62-8,31.87-1-.27-1.94-.55-2.91-.86"/><path class="cls-2" d="M5044.76,914.22c-15.34-3.29-18.05-13.21-14-26.68A99.42,99.42,0,0,1,5044.76,914.22Z"/><path class="cls-2" d="M4388.52,974.69c-2,12.67-4.46,25-19.79,28.33C4374.71,993.14,4378.75,981.92,4388.52,974.69Z"/><path class="cls-2" d="M5030.85,887.78c-7.67-4.75-25.55-2.61-13.79-20.46C5022.36,873.68,5028.73,879.3,5030.85,887.78Z"/><path class="cls-2" d="M4359.86,1022c-1.47,10.68,0,23.06-15,25.87C4349.9,1039.31,4351.44,1028.67,4359.86,1022Z"/><path class="cls-8" d="M5054.55,937.86c-9.65-1.2-7-7.48-5.48-13.28C5052.66,928.28,5055.38,932.34,5054.55,937.86Z"/><path class="cls-2" d="M4366.94,1009.6c4,6.95-.48,6.67-5.25,6.13C4361.93,1012.39,4363.18,1009.92,4366.94,1009.6Z"/><path class="cls-10" d="M5015.91,866c-7.67,2.15-8.33-1.35-5.88-7.33Z"/><path class="cls-10" d="M4390.66,968.56a17.53,17.53,0,0,1,.73,2.71c0,.15-.92.43-1.42.65A5.78,5.78,0,0,1,4390.66,968.56Z"/><path class="cls-9" d="M4741.15,955.8q-2.19,23.54-4.37,47.06c-1.19,3.76-3,7.52-.11,11.33h0a118.68,118.68,0,0,0-4,22.57c-3.67,44-6.87,88-14.22,131.57-3.79,22.46-6.3,45.14-9.39,67.72q-1.32,5.07-2.65,10.16c-2,6.76-4.3,13.45-6,20.3-12.77,52.67-33.7,102.12-58.84,149.93-18.32,18.62-29.78,42.09-44.46,63.28-31,44.72-65.49,86.55-103,127.32,1.06-4.67,1.78-9.45,3.22-14,18-57.08,28.42-115.44,34-175.13,4.14-44.24,22.86-85,40.75-125.43,29.63-66.94,62.85-133.06,75.73-205.53,9-50.72,19.24-100.77,33.49-150.22,9.87-34.25,25-66.12,39.62-98.33,8.4-15.46,21.9-25.67,36.12-35.18,5.29-3.54,12.16-4.9,15.58-11.05l13.48,2.62C4755,844,4743.46,898.58,4741.15,955.8Z"/><path class="cls-1" d="M4686.44,862.31c-23.78,72.08-49.16,143.66-68.74,217.07-17.39,36.47-25.36,76.21-39.65,113.84-23.5,61.83-45.91,124.06-74,184-2.93,6.26-4.74,18.15-13.3,16.1-8.08-1.94-5.44-13.37-5.35-20.58.43-34,13.77-64.54,27.37-94.7,5.65-12.53,9.83-25.36,13.74-38.33q25.32-84.11,54.61-166.89,2-5.29,4.07-10.58l23.95-55.75q5.29-11.5,10.6-23c16.82-36.08,33.74-72.11,50.41-108.25,7.85-17,15.21-34.29,22.79-51.46l6,1.78C4696.29,838.32,4686.64,848.71,4686.44,862.31Z"/><path class="cls-1" d="M4585.17,1062.24q-2,5.29-4.07,10.58c-20-7.13-41.34-10.13-58.86-24-8.26-6.53-20.77-7.27-28.4,0-17.83,17.07-41.06,16.42-62.34,22-8.83,2.32-16.53,6.33-24.33,10.55-4.45,2.41-7.54,5.58-6.91,11.25.67,6,3.53,9.76,9.53,11.27a136.41,136.41,0,0,1,17,5.1c8.74,3.48,17.09,9.82,16.06,19.25-2.74,25,12.51,33.49,32.17,39.15,3.95,1.13,7.88,2.3,13.61,4-36.26,7.69-89.4-12.37-107.49-39.63-2.18-3.28-5.19-9.17-3.84-11.14,10.15-14.85,6.3-31.87,9.25-47.76,3.41-18.43,18.59-30.13,34.08-38.84,21.8-12.26,42.57-24.86,59.37-44.23,12-13.79,30.54-14.84,47.75-12.94,8.37.92,9.81,11.07,12.85,17.86,5.3,11.84,9.73,24.07,14.7,36.06C4561.26,1045.06,4571.12,1055.66,4585.17,1062.24Z"/><path class="cls-1" d="M4619.72,983.48q-5.31,11.5-10.6,23c-15.85-8.32-26.44,9-41.19,9.83C4577,986.36,4593.79,976.12,4619.72,983.48Z"/><path class="cls-12" d="M4698.94,825.55l-6-1.78c1.19-5.67,2.58-11.2,9.38-13.15C4703.41,816.28,4700.58,820.78,4698.94,825.55Z"/><path class="cls-7" d="M4572.89,1626.52c23.23-15.08,48.48-27.74,63.41-52.75,27.52-46.13,51.52-94.15,74.93-142.41,9.44-19.45,7.73-41.86,9.68-62.74,4-43.16,13.27-85,23.8-126.79,15.46-61.34,31.24-122.6,46-184.11,3.52-14.65,3.65-30.14,2.07-45.27,6.68-.71,6.87,3.84,8.45,6.47,5.59,9.31,7.57,10,17.25.89,22.4-21,26.85-52.37,47.22-73.89,3.62-3.84,6.17-9.08,10.41-11.87,14-9.21,18.22-21.88,17.49-38.07-1-22.34,9.9-34.89,30.54-41.11,8.31-2.51,13.3.2,19.37,4.25,71.81,47.85,107.41,113.74,94.73,200.42-9.15,62.53-23.92,124-48.23,182.94-10.79,26.15-21.59,52.24-34.3,77.5-4.21,8.36-9.54,16.35-23.68,14.56,15.06,3.28,11.7,10.15,6.73,17-20.37,28.29-39.84,57.3-61.53,84.55-41.26,51.82-92.75,92.38-147.32,129.26-3.57,2.42-6.65,5-11.22,3.4,5.85-9.48,13.19-17.82,17.29-28.64,8.34-22,18.08-43.45,27.22-65.14,4.2-10,15.15-22.39,4.79-30.28-10.64-8.1-20.44,6.29-30.22,11.75a8.58,8.58,0,0,0-2.56,2.43c-28.71,39.11-65.78,72-82.88,119.84-5.44,15.24-5.13,19.57,9.61,22.12-24.71,15.17-51.07,26.26-79.59,31.92C4578.53,1631.7,4574.43,1631,4572.89,1626.52Z"/><path class="cls-2" d="M4641.6,1416.45c25.14-47.81,46.07-97.26,58.84-149.93,1.66-6.85,4-13.54,6-20.3,2.17,3.31,1.63,6.77.57,10.25-11.07,36.24-15.91,74-28.19,110-8.4,24.6-13.11,49.94-16.33,76-4.59,37.16-28.18,67-47.22,98.26-16.27,26.67-36.62,50.88-48.27,80.33-12.3-3-16.81-12.58-18-23.54-1.1-10.45,6.5-16,15.13-19.35,26.27-10.09,31.42-33.79,34.83-57,1.73-11.76,5-21.47,12.38-30,13.31-15.49,19-34.92,27.28-52.93C4641.58,1431.85,4645.9,1424.41,4641.6,1416.45Z"/><path class="cls-1" d="M4661.93,1600.88c-14.74-2.55-15.05-6.88-9.61-22.12,17.1-47.87,54.17-80.73,82.88-119.84a8.58,8.58,0,0,1,2.56-2.43c9.78-5.46,19.58-19.85,30.22-11.75,10.36,7.89-.59,20.31-4.79,30.28-9.14,21.69-18.88,43.15-27.22,65.14-4.1,10.82-11.44,19.16-17.29,28.64a156.35,156.35,0,0,0-25.76,21.25C4684.54,1598.57,4673,1599.36,4661.93,1600.88Z"/><path class="cls-2" d="M4741.15,955.8c2.31-57.22,13.88-111.85,45-161,9.15,4.89,26.88,1.09,27.64,10.44,1.12,13.63.53,29.42-7.49,42.82-7.87,13.15-15,26.74-22.46,40.13-11.48,20.58-25.53,39.88-32.09,62.92C4749.93,957.63,4747.6,960.8,4741.15,955.8Z"/><path class="cls-2" d="M4709.05,1236.06c3.09-22.58,5.6-45.26,9.39-67.72,7.35-43.59,10.55-87.61,14.22-131.57a118.68,118.68,0,0,1,4-22.57c5.33,19.79,11,39.5,15.88,59.39,3.42,13.88,4.24,27.81-.51,41.88-12.61,37.4-19.18,76.76-36.65,112.61C4713.8,1231.31,4712.81,1234.69,4709.05,1236.06Z"/><path class="cls-10" d="M4736.67,1014.19c-2.86-3.81-1.08-7.57.11-11.33C4739.67,1006.66,4738.08,1010.42,4736.67,1014.19Z"/><path class="cls-5" d="M1933.79,1917.46l85.86-62.72c14.08-11,33.37-12.71,50-7.91,20.44,5.89,37.79,20.6,51.16,35.84,12.7,14.47,24.44,32.13,26.56,52.37,1.83,17.53-6.52,35.18-18.59,47.59l-72.45,75.55q-27.2-26.53-52.69-54.58l77.64-70.19c7.42-6.71,7.78-13.72,1.24-21.23-6.32-7.26-13.23-7.74-20.86-1.27l-79.77,67.74Q1956.91,1948.74,1933.79,1917.46Z"/><path class="cls-5" d="M2278.57,2024.5c22.36,15.22,41.23,37.16,50.52,62.45,8.27,22.5,11.3,46.54-.76,69.05-12.16,22.7-35.86,34-60.7,35.94-32.32,2.53-64.36-9.94-89.58-27.75-25.9-18.28-47.48-43.88-56.89-75.86-7.13-24.22-5.06-50.77,12.45-70.07s41.86-24,66.21-23C2228.4,1996.34,2255,2008.48,2278.57,2024.5Zm-29.27,38.43c-10-7-22.65-12.18-34.27-11.44-9.91.64-21,3.17-27.79,12.2-6.45,8.59-7.56,20.13-4.38,30.32,3.89,12.44,12.46,23.13,23,30.6s24.29,13,36.47,11.47c9.89-1.2,20.81-5,26.77-14.57,5-7.89,5.7-21.58,2.39-30.21A63.2,63.2,0,0,0,2249.3,2062.93Z"/><path class="cls-5" d="M2480.66,2134.09l-16.23,43.8a47.87,47.87,0,0,0-9.31-5.41,19.77,19.77,0,0,0-13-.68c-4.21,1.26-7.06,3.65-8.5,7.21-1.23,3-1,7.62.68,13.72.9,3.14,1.35,4.71,2.27,7.85,3.62,11.74,4.79,24.87.75,36.53-5.75,16.63-21.85,25.12-37.17,29-20.75,5.26-43.7-.13-62.3-9-10.63-5.07-19.22-11.76-28.52-20l21.59-42.24c4.48,5.61,9.06,9.53,13.63,11.76,5.39,2.63,10.44,3.68,15.1,3.17s7.75-2.45,9.3-5.8c1-2.17.31-8.26-1.87-18.25-2.16-14.28-3.12-27.83,3.52-41,7-13.9,21.36-23.43,36.54-26.77,17-3.74,35.74-2.52,51.88,4.16A106.59,106.59,0,0,1,2480.66,2134.09Z"/><path class="cls-5" d="M2600.91,2169.06q-5,22.82-10,45.61a47.33,47.33,0,0,0-9.9-4.05,19.52,19.52,0,0,0-12.88,1.16c-4,1.84-6.45,4.6-7.38,8.33-.8,3.18,0,7.68,2.54,13.47,1.3,3,2,4.48,3.29,7.46,5.17,11.12,8.1,23.94,5.73,36-3.24,16.48-17.62,28.31-32.62,33.91-20.61,7.7-42.94,6.05-62.45-.08-11.12-3.49-20.45-8.86-30.69-15.65q7.72-22.41,15.47-44.83c5.15,4.9,10.18,8.12,15,9.67,5.65,1.83,10.75,2.15,15.25,1s7.28-3.54,8.35-7.06c.7-2.3-.82-8.22-4.31-17.77-4.07-13.84-6.82-27.09-2.09-41,5-14.7,17.73-26.19,32.24-31.68,16.14-6.1,34.77-7.57,51.56-3.23A104.7,104.7,0,0,1,2600.91,2169.06Z"/><path class="cls-5" d="M2725.35,2183.77c26.54,2,52.06,11.23,72.92,27.88,18.57,14.83,32.6,35.54,33.58,59.89,1.08,26.71-13.4,46.49-33.24,61.67-24.76,18.94-58.52,24.18-88.46,21.86-30.39-2.36-62.13-13.06-83.89-35.32-17.24-17.65-28.71-39.78-23.49-66,5-25.18,22.39-42.07,43.26-54.22C2669.44,2185.91,2698,2181.7,2725.35,2183.77Zm-5.53,48a59.38,59.38,0,0,0-34,7.86c-7.91,4.65-15.85,15.65-17.05,24.8-1.44,11,4.38,20.89,11.12,28.16,8.07,8.71,21.55,13.34,34,14.31a59.29,59.29,0,0,0,36-8.84c7.83-5,14.95-16.83,15.19-26.17s-5.76-21.35-12.87-27.18A59.2,59.2,0,0,0,2719.82,2231.73Z"/><path class="cls-5" d="M3089.53,2229.23c22.09-6.59,43.89-13.78,65.56-21.62,5.23,24.79.51,50.3-14.61,70.67-17.91,24.11-47.1,38.1-74.65,45.23-29.69,7.69-63.6,8.71-91.6-5.26-22.14-11-39.49-28.47-43.18-54.89-3.42-24.52,6.4-47.8,22.62-65.85,18.46-20.55,43.29-33.77,69.82-40.73,26-6.83,53.58-7.65,79.26,1.26,18.07,5.9,33.82,18.68,45.48,33.43q-31.91,14.09-64.5,26.23c-12.57-14.83-31.15-18.63-49.38-13.88-11.43,3-22.46,9-29.94,18.35a37.15,37.15,0,0,0-7.25,29.69c1.7,9.19,10.36,19.53,18.92,23.11,11.24,4.71,24.58,5.09,36.47,2,11.45-3,23.11-8.52,30.55-18.07C3089.62,2250.53,3091.5,2239.59,3089.53,2229.23Z"/><path class="cls-5" d="M3255.58,2157.65l20.3,38.17c-7.07,3.76-10.62,5.6-17.76,9.21q8.84,17.4,17.65,34.81-32.14,16-65.09,30.18-20.38-48-40.78-95.92a60.49,60.49,0,0,1,.69-51.59c9.25-18.51,27.62-31.46,44.86-40.64,16-8.53,35.09-16.26,54.22-13.44,17.1,2.52,31.32,16.07,40.17,30.19l56.95,89.32q-30.7,19.36-62.4,36.87l-49.2-90.13q-4.59-8.43-9-10.27c-2.94-1.23-6.68-.62-11.24,1.78-8.83,4.65-10.72,11.93-5.58,22.07l9.23,18.21C3245.4,2163,3248.81,2161.25,3255.58,2157.65Z"/><path class="cls-5" d="M3421.81,2040.13l28.2,33.71c-7.26,6.11-10.92,9.11-18.29,15q13.34,16.71,26.66,33.41-28.86,22.88-59,44l-57.8-83.7c-10.95-14.93-12.73-35-8.33-52.36,5-19.65,18.32-37.35,33.77-50.22,18.44-15.36,41.17-24.33,65.35-24.3q-9.42,29.29-20.38,58c-6.38-2.75-12.45-1.67-18.34,3.22-7.81,6.46-8.52,13.66-2,21.79l12.65,15.86C3411.37,2048.85,3414.87,2046,3421.81,2040.13Z"/><path class="cls-5" d="M3554.07,1883.4l28.74,22.46c-9.71,12.51-19.78,24.75-30.07,36.8-4.17,4.87-6.68,8.69-7.48,11.55a6.7,6.7,0,0,0,2.18,7.31c2.57,2.29,5.17,2.77,7.81,1.41s6.78-5.26,12.35-11.79c10.74-12.67,21.25-25.54,31.38-38.71l37,28.65c-12.48,16-25.21,31.78-38.5,47.1-14.74,16.1-31.82,32.19-52.95,38.55-14.75,4.43-30.69-.36-41.5-11.17l-44.87-46c-9.75-10.25-15.1-24.87-12.79-38.83,2.78-16.83,13.63-33.26,24.92-46q18.63-21.57,36.15-44l37.2,28.79q-13.58,17.37-27.69,34.24c-7.65,9-9.53,15.21-5.45,18.81a6.63,6.63,0,0,0,7.8,1.2c2.81-1.33,6.61-4.77,11.35-10.38Q3542.16,1898.69,3554.07,1883.4Zm-72.41-86.62c.06,18.32-.31,36.57-1.11,54.87q-12.43,15.24-25.54,29.95c.52-16.9.64-33.81.19-50.71Q3468.75,1814.06,3481.66,1796.78Z"/></g></g></svg>