<svg width="127" height="115" viewBox="0 0 127 115" fill="none" xmlns="http://www.w3.org/2000/svg">
<g clip-path="url(#clip0_206_53)" filter="url(#filter0_i_206_53)">
<path d="M91.2025 17.6203L68.9025 42.8203L91.2025 68.6203L98.1025 71.6203V77.1203H72.7025V71.6203L80.1025 68.6203L62.8025 48.6203L45.5025 68.6203L52.9025 71.6203V77.1203H28.9025V71.6203L35.8025 68.6203L58.3025 43.3203L36.2025 17.7203L29.3025 14.8203V9.1203L54.7025 9.1203V14.8203L47.3025 17.7203L64.5025 37.7203L81.7025 17.6203L74.3025 14.6203V9.1203L98.1025 9.1203V14.6203L91.2025 17.6203Z" fill="white"/>
<path d="M27.2155 42.492C28.9175 42.8127 30.1879 43.1703 31.0265 43.565C31.8652 43.9597 32.4325 44.4777 32.7285 45.119C33.0245 45.7357 33.1725 46.6113 33.1725 47.746C33.1725 49.152 32.9135 50.2743 32.3955 51.113C31.9022 51.927 31.0142 52.5313 29.7315 52.926C28.4735 53.3207 26.6852 53.518 24.3665 53.518C23.1825 53.518 22.0355 53.4563 20.9255 53.333C19.8155 53.2343 18.4712 53.0493 16.8925 52.778V47.45H19.1125L20.1855 50.595C21.4929 50.817 22.9235 50.928 24.4775 50.928C26.0069 50.928 27.1539 50.854 27.9185 50.706C28.6832 50.5333 29.2012 50.262 29.4725 49.892C29.7685 49.4973 29.9165 48.93 29.9165 48.19C29.9165 47.524 29.7809 47.0307 29.5095 46.71C29.2382 46.3647 28.8312 46.118 28.2885 45.97C27.7705 45.822 26.8579 45.6493 25.5505 45.452L23.0345 45.008C21.2832 44.6873 19.9635 44.3297 19.0755 43.935C18.1875 43.5403 17.5585 43.01 17.1885 42.344C16.8432 41.6533 16.6705 40.6913 16.6705 39.458C16.6705 38.1013 16.9049 37.0283 17.3735 36.239C17.8669 35.4497 18.7055 34.87 19.8895 34.5C21.0735 34.1053 22.7385 33.908 24.8845 33.908C27.0305 33.908 29.5712 34.1547 32.5065 34.648V39.791H30.3605L29.3615 36.905C27.7335 36.6337 26.1919 36.498 24.7365 36.498C23.4539 36.498 22.4672 36.5843 21.7765 36.757C21.0859 36.9297 20.6049 37.201 20.3335 37.571C20.0622 37.941 19.9265 38.4713 19.9265 39.162C19.9265 39.8527 20.0745 40.3707 20.3705 40.716C20.6665 41.0367 21.1475 41.2957 21.8135 41.493C22.4795 41.6657 23.6389 41.8877 25.2915 42.159C25.9082 42.233 26.5495 42.344 27.2155 42.492ZM57.9021 50.965V53H52.2781V40.753C52.2781 39.2977 51.9205 38.2493 51.2051 37.608C50.5145 36.942 49.4908 36.609 48.1341 36.609C47.2708 36.609 46.4198 36.72 45.5811 36.942C44.7671 37.164 43.5708 37.5587 41.9921 38.126V49.855L44.5081 50.965V53H36.3681V50.965L38.8841 49.855V29.875L36.3681 28.839V26.73H41.9921V35.721C43.2501 35.0797 44.4465 34.6233 45.5811 34.352C46.7405 34.056 47.9245 33.908 49.1331 33.908C50.6871 33.908 51.9205 34.1547 52.8331 34.648C53.7458 35.1167 54.3995 35.8813 54.7941 36.942C55.1888 37.978 55.3861 39.384 55.3861 41.16V49.855L57.9021 50.965ZM70.1153 33.908C72.952 33.908 75.2213 34.6973 76.9233 36.276C78.65 37.83 79.5133 40.309 79.5133 43.713C79.5133 47.117 78.65 49.6083 76.9233 51.187C75.2213 52.741 72.952 53.518 70.1153 53.518C67.2787 53.518 64.997 52.741 63.2703 51.187C61.5683 49.6083 60.7173 47.117 60.7173 43.713C60.7173 40.309 61.5683 37.83 63.2703 36.276C64.997 34.6973 67.2787 33.908 70.1153 33.908ZM70.1153 36.572C68.6353 36.572 67.4513 36.7817 66.5633 37.201C65.7 37.6203 65.0463 38.348 64.6023 39.384C64.183 40.42 63.9733 41.863 63.9733 43.713C63.9733 45.563 64.183 47.006 64.6023 48.042C65.0463 49.078 65.7 49.8057 66.5633 50.225C67.4513 50.6443 68.6353 50.854 70.1153 50.854C71.5953 50.854 72.767 50.6443 73.6303 50.225C74.5183 49.8057 75.172 49.078 75.5913 48.042C76.0353 47.006 76.2573 45.563 76.2573 43.713C76.2573 41.863 76.0353 40.42 75.5913 39.384C75.172 38.348 74.5183 37.6203 73.6303 37.201C72.767 36.7817 71.5953 36.572 70.1153 36.572ZM111.447 34.426V36.535L109.301 37.571L104.158 53H100.384L96.2402 39.939L92.0962 53H88.3222L83.1792 37.571L81.0332 36.535V34.426H88.9142V36.535L86.3982 37.571L90.3942 49.781L94.8712 35.684H98.0902L102.567 49.707L106.6 37.571L104.084 36.535V34.426H111.447Z" fill="white"/>
<path d="M27.2155 42.492L26.7817 44.4444L26.8134 44.4514L26.8453 44.4574L27.2155 42.492ZM31.0265 43.565L31.8781 41.7554L31.8781 41.7554L31.0265 43.565ZM32.7285 45.119L30.9126 45.9571L30.919 45.9708L30.9255 45.9845L32.7285 45.119ZM32.3955 51.113L30.694 50.062L30.6895 50.0692L30.6852 50.0764L32.3955 51.113ZM29.7315 52.926L29.1434 51.0144L29.1329 51.0177L29.7315 52.926ZM20.9255 53.333L21.1464 51.3452L21.1245 51.3428L21.1026 51.3409L20.9255 53.333ZM16.8925 52.778H14.8925V54.4636L16.5538 54.7491L16.8925 52.778ZM16.8925 47.45V45.45H14.8925V47.45H16.8925ZM19.1125 47.45L21.0054 46.8042L20.5434 45.45H19.1125V47.45ZM20.1855 50.595L18.2927 51.2408L18.6771 52.3675L19.8507 52.5668L20.1855 50.595ZM27.9185 50.706L28.2986 52.6696L28.3289 52.6637L28.3591 52.6569L27.9185 50.706ZM29.4725 49.892L27.8725 48.692L27.8661 48.7006L27.8597 48.7093L29.4725 49.892ZM29.5095 46.71L27.9369 47.9456L27.9593 47.9742L27.9828 48.0019L29.5095 46.71ZM28.2885 45.97L27.7391 47.8931L27.7507 47.8964L27.7623 47.8995L28.2885 45.97ZM25.5505 45.452L25.203 47.4216L25.2275 47.4259L25.252 47.4296L25.5505 45.452ZM23.0345 45.008L22.6743 46.9753L22.687 46.9776L23.0345 45.008ZM19.0755 43.935L18.2633 45.7626L18.2633 45.7626L19.0755 43.935ZM17.1885 42.344L15.3997 43.2384L15.4191 43.2773L15.4402 43.3153L17.1885 42.344ZM17.3735 36.239L15.6775 35.179L15.6655 35.1983L15.6538 35.2179L17.3735 36.239ZM19.8895 34.5L20.4861 36.409L20.5041 36.4033L20.522 36.3974L19.8895 34.5ZM32.5065 34.648H34.5065V32.9561L32.838 32.6757L32.5065 34.648ZM32.5065 39.791V41.791H34.5065V39.791H32.5065ZM30.3605 39.791L28.4706 40.4452L28.9364 41.791H30.3605V39.791ZM29.3615 36.905L31.2515 36.2508L30.8627 35.1276L29.6903 34.9322L29.3615 36.905ZM21.7765 36.757L21.2915 34.8167L21.2915 34.8167L21.7765 36.757ZM20.3335 37.571L18.7207 36.3883L18.7207 36.3883L20.3335 37.571ZM20.3705 40.716L18.852 42.0176L18.876 42.0455L18.9009 42.0726L20.3705 40.716ZM21.8135 41.493L21.2454 43.4106L21.2783 43.4204L21.3116 43.429L21.8135 41.493ZM25.2915 42.159L24.9675 44.1326L25.0103 44.1396L25.0533 44.1448L25.2915 42.159ZM26.8453 44.4574C28.4982 44.7689 29.5691 45.0895 30.175 45.3746L31.8781 41.7554C30.8067 41.2511 29.3369 40.8565 27.5858 40.5266L26.8453 44.4574ZM30.175 45.3746C30.7226 45.6323 30.8683 45.861 30.9126 45.9571L34.5445 44.2809C33.9968 43.0943 33.0079 42.287 31.8781 41.7554L30.175 45.3746ZM30.9255 45.9845C31.0335 46.2094 31.1725 46.7379 31.1725 47.746H35.1725C35.1725 46.4848 35.0156 45.2619 34.5316 44.2535L30.9255 45.9845ZM31.1725 47.746C31.1725 48.931 30.9507 49.6464 30.694 50.062L34.0971 52.164C34.8764 50.9023 35.1725 49.373 35.1725 47.746H31.1725ZM30.6852 50.0764C30.5334 50.3268 30.1485 50.7052 29.1434 51.0144L30.3197 54.8376C31.8799 54.3575 33.271 53.5272 34.1059 52.1496L30.6852 50.0764ZM29.1329 51.0177C28.1621 51.3223 26.6113 51.518 24.3665 51.518V55.518C26.7591 55.518 28.785 55.3191 30.3302 54.8343L29.1329 51.0177ZM24.3665 51.518C23.252 51.518 22.1788 51.46 21.1464 51.3452L20.7047 55.3208C21.8923 55.4527 23.1131 55.518 24.3665 55.518V51.518ZM21.1026 51.3409C20.0645 51.2486 18.7774 51.0726 17.2313 50.8069L16.5538 54.7491C18.165 55.026 19.5666 55.2201 20.7485 55.3252L21.1026 51.3409ZM18.8925 52.778V47.45H14.8925L14.8925 52.778H18.8925ZM16.8925 49.45H19.1125V45.45H16.8925V49.45ZM17.2197 48.0958L18.2927 51.2408L22.0784 49.9492L21.0054 46.8042L17.2197 48.0958ZM19.8507 52.5668C21.2856 52.8104 22.8299 52.928 24.4775 52.928V48.928C23.0172 48.928 21.7002 48.8236 20.5204 48.6232L19.8507 52.5668ZM24.4775 52.928C26.0374 52.928 27.3401 52.8551 28.2986 52.6696L27.5385 48.7424C26.9677 48.8529 25.9764 48.928 24.4775 48.928V52.928ZM28.3591 52.6569C29.2886 52.447 30.3861 52.0282 31.0854 51.0747L27.8597 48.7093C27.947 48.5903 28.0132 48.5695 27.9525 48.6013C27.8896 48.6343 27.7444 48.695 27.478 48.7551L28.3591 52.6569ZM31.0725 51.092C31.7292 50.2165 31.9165 49.1571 31.9165 48.19H27.9165C27.9165 48.4319 27.8918 48.5833 27.8703 48.6657C27.8498 48.7445 27.8383 48.7377 27.8725 48.692L31.0725 51.092ZM31.9165 48.19C31.9165 47.3123 31.7477 46.2589 31.0363 45.4181L27.9828 48.0019C27.8945 47.8976 27.8791 47.8243 27.8864 47.8508C27.8949 47.8818 27.9165 47.9855 27.9165 48.19H31.9165ZM31.0822 45.4744C30.4794 44.7071 29.6547 44.2696 28.8148 44.0405L27.7623 47.8995C27.8858 47.9332 27.9456 47.9651 27.9642 47.9764C27.9792 47.9855 27.9619 47.9774 27.9369 47.9456L31.0822 45.4744ZM28.838 44.047C28.1827 43.8597 27.1545 43.6715 25.8491 43.4744L25.252 47.4296C26.5612 47.6272 27.3584 47.7843 27.7391 47.8931L28.838 44.047ZM25.8981 43.4824L23.3821 43.0384L22.687 46.9776L25.203 47.4216L25.8981 43.4824ZM23.3948 43.0407C21.6931 42.7291 20.558 42.4052 19.8878 42.1074L18.2633 45.7626C19.3691 46.2541 20.8733 46.6455 22.6743 46.9753L23.3948 43.0407ZM19.8878 42.1074C19.2863 41.84 19.0441 41.5658 18.9369 41.3727L15.4402 43.3153C16.0729 44.4542 17.0888 45.2407 18.2633 45.7626L19.8878 42.1074ZM18.9774 41.4496C18.8297 41.1542 18.6705 40.5464 18.6705 39.458H14.6705C14.6705 40.8363 14.8567 42.1525 15.3997 43.2384L18.9774 41.4496ZM18.6705 39.458C18.6705 38.3004 18.8755 37.6268 19.0933 37.2601L15.6538 35.2179C14.9343 36.4298 14.6705 37.9023 14.6705 39.458H18.6705ZM19.0695 37.299C19.2358 37.033 19.6049 36.6843 20.4861 36.409L19.293 32.591C17.8062 33.0557 16.498 33.8663 15.6775 35.179L19.0695 37.299ZM20.522 36.3974C21.4067 36.1025 22.8223 35.908 24.8845 35.908L24.8845 31.908C22.6548 31.908 20.7404 32.1082 19.2571 32.6026L20.522 36.3974ZM24.8845 35.908C26.8862 35.908 29.3107 36.1389 32.1751 36.6203L32.838 32.6757C29.8318 32.1704 27.1749 31.908 24.8845 31.908L24.8845 35.908ZM30.5065 34.648V39.791H34.5065V34.648H30.5065ZM32.5065 37.791H30.3605V41.791H32.5065V37.791ZM32.2505 39.1368L31.2515 36.2508L27.4716 37.5592L28.4706 40.4452L32.2505 39.1368ZM29.6903 34.9322C27.9678 34.6451 26.3155 34.498 24.7365 34.498V38.498C26.0682 38.498 27.4993 38.6222 29.0328 38.8778L29.6903 34.9322ZM24.7365 34.498C23.3985 34.498 22.2194 34.5847 21.2915 34.8167L22.2616 38.6973C22.715 38.5839 23.5093 38.498 24.7365 38.498V34.498ZM21.2915 34.8167C20.3852 35.0433 19.3845 35.4832 18.7207 36.3883L21.9464 38.7537C21.8834 38.8395 21.8378 38.856 21.8804 38.832C21.9273 38.8056 22.0429 38.752 22.2616 38.6973L21.2915 34.8167ZM18.7207 36.3883C18.0995 37.2354 17.9265 38.2494 17.9265 39.162H21.9265C21.9265 38.9424 21.9486 38.8094 21.9659 38.7419C21.9823 38.6776 21.988 38.6969 21.9464 38.7537L18.7207 36.3883ZM17.9265 39.162C17.9265 40.092 18.1193 41.1627 18.852 42.0176L21.8891 39.4144C21.9599 39.497 21.9699 39.5516 21.9606 39.5191C21.9497 39.4808 21.9265 39.371 21.9265 39.162H17.9265ZM18.9009 42.0726C19.5457 42.771 20.4192 43.1658 21.2454 43.4106L22.3817 39.5754C22.1468 39.5058 21.9936 39.4394 21.9015 39.3898C21.809 39.34 21.8056 39.322 21.8402 39.3594L18.9009 42.0726ZM21.3116 43.429C22.0752 43.627 23.3155 43.8614 24.9675 44.1326L25.6156 40.1854C23.9622 39.914 22.8839 39.7044 22.3155 39.557L21.3116 43.429ZM25.0533 44.1448C25.5982 44.2102 26.1741 44.3094 26.7817 44.4444L27.6494 40.5396C26.925 40.3787 26.2182 40.2559 25.5298 40.1733L25.0533 44.1448ZM57.9021 50.965H59.9021V49.6614L58.7094 49.1352L57.9021 50.965ZM57.9021 53V55H59.9021V53H57.9021ZM52.2781 53H50.2781V55H52.2781V53ZM51.2051 37.608L49.8169 39.0477L49.843 39.0729L49.87 39.0971L51.2051 37.608ZM45.5811 36.942L45.0694 35.0086L45.0621 35.0105L45.0549 35.0125L45.5811 36.942ZM41.9921 38.126L41.3157 36.2439L39.9921 36.7195V38.126H41.9921ZM41.9921 49.855H39.9921V51.1586L41.1849 51.6848L41.9921 49.855ZM44.5081 50.965H46.5081V49.6614L45.3154 49.1352L44.5081 50.965ZM44.5081 53V55H46.5081V53H44.5081ZM36.3681 53H34.3681V55H36.3681V53ZM36.3681 50.965L35.5609 49.1352L34.3681 49.6614V50.965H36.3681ZM38.8841 49.855L39.6914 51.6848L40.8841 51.1586V49.855H38.8841ZM38.8841 29.875H40.8841V28.5356L39.6456 28.0256L38.8841 29.875ZM36.3681 28.839H34.3681V30.1784L35.6066 30.6884L36.3681 28.839ZM36.3681 26.73V24.73H34.3681V26.73H36.3681ZM41.9921 26.73H43.9921V24.73H41.9921V26.73ZM41.9921 35.721H39.9921V38.9855L42.9005 37.5028L41.9921 35.721ZM45.5811 34.352L46.0463 36.2972L46.0611 36.2936L46.0759 36.2898L45.5811 34.352ZM52.8331 34.648L51.8821 36.4074L51.9007 36.4175L51.9195 36.4271L52.8331 34.648ZM54.7941 36.942L52.9197 37.6395L52.9224 37.6467L52.9252 37.654L54.7941 36.942ZM55.3861 49.855H53.3861V51.1586L54.5789 51.6848L55.3861 49.855ZM55.9021 50.965V53H59.9021V50.965H55.9021ZM57.9021 51H52.2781V55H57.9021V51ZM54.2781 53V40.753H50.2781V53H54.2781ZM54.2781 40.753C54.2781 39.0224 53.8564 37.2989 52.5402 36.1189L49.87 39.0971C49.9845 39.1998 50.2781 39.573 50.2781 40.753H54.2781ZM52.5934 36.1683C51.3993 35.0168 49.7931 34.609 48.1341 34.609V38.609C49.1885 38.609 49.6297 38.8672 49.8169 39.0477L52.5934 36.1683ZM48.1341 34.609C47.0972 34.609 46.0742 34.7426 45.0694 35.0086L46.0929 38.8754C46.7654 38.6974 47.4444 38.609 48.1341 38.609V34.609ZM45.0549 35.0125C44.1622 35.2559 42.9057 35.6725 41.3157 36.2439L42.6685 40.0082C44.2359 39.4449 45.372 39.0721 46.1074 38.8715L45.0549 35.0125ZM39.9921 38.126V49.855H43.9921V38.126H39.9921ZM41.1849 51.6848L43.7009 52.7948L45.3154 49.1352L42.7994 48.0252L41.1849 51.6848ZM42.5081 50.965V53H46.5081V50.965H42.5081ZM44.5081 51H36.3681V55H44.5081V51ZM38.3681 53V50.965H34.3681V53H38.3681ZM37.1754 52.7948L39.6914 51.6848L38.0769 48.0252L35.5609 49.1352L37.1754 52.7948ZM40.8841 49.855V29.875H36.8841V49.855H40.8841ZM39.6456 28.0256L37.1296 26.9896L35.6066 30.6884L38.1226 31.7244L39.6456 28.0256ZM38.3681 28.839V26.73H34.3681V28.839H38.3681ZM36.3681 28.73H41.9921V24.73H36.3681V28.73ZM39.9921 26.73V35.721H43.9921V26.73H39.9921ZM42.9005 37.5028C44.0461 36.9188 45.0934 36.525 46.0463 36.2972L45.116 32.4068C43.7995 32.7217 42.4542 33.2406 41.0838 33.9392L42.9005 37.5028ZM46.0759 36.2898C47.0719 36.0355 48.0896 35.908 49.1331 35.908V31.908C47.7593 31.908 46.409 32.0765 45.0864 32.4142L46.0759 36.2898ZM49.1331 35.908C50.5074 35.908 51.3713 36.1313 51.8821 36.4074L53.7842 32.8886C52.4697 32.178 50.8669 31.908 49.1331 31.908V35.908ZM51.9195 36.4271C52.341 36.6436 52.6797 36.9944 52.9197 37.6395L56.6686 36.2445C56.1193 34.7683 55.1506 33.5898 53.7467 32.8689L51.9195 36.4271ZM52.9252 37.654C53.1969 38.3673 53.3861 39.4987 53.3861 41.16H57.3861C57.3861 39.2694 57.1807 37.5887 56.6631 36.23L52.9252 37.654ZM53.3861 41.16V49.855H57.3861V41.16H53.3861ZM54.5789 51.6848L57.0949 52.7948L58.7094 49.1352L56.1934 48.0252L54.5789 51.6848ZM76.9233 36.276L75.5632 37.7423L75.5742 37.7526L75.5854 37.7626L76.9233 36.276ZM76.9233 51.187L78.2719 52.664L78.2729 52.6631L76.9233 51.187ZM63.2703 51.187L61.9102 52.6533L61.9212 52.6636L61.9324 52.6736L63.2703 51.187ZM63.2703 36.276L64.6189 37.753L64.6199 37.7521L63.2703 36.276ZM66.5633 37.201L65.7093 35.3925L65.6994 35.3972L65.6895 35.402L66.5633 37.201ZM64.6023 39.384L62.764 38.5962L62.756 38.6148L62.7484 38.6336L64.6023 39.384ZM64.6023 48.042L62.7484 48.7924L62.756 48.8112L62.764 48.8298L64.6023 48.042ZM66.5633 50.225L65.6895 52.024L65.6994 52.0288L65.7093 52.0335L66.5633 50.225ZM73.6303 50.225L72.7763 48.4165L72.7664 48.4212L72.7565 48.426L73.6303 50.225ZM75.5913 48.042L73.753 47.2542L73.745 47.2728L73.7374 47.2916L75.5913 48.042ZM75.5913 39.384L73.7374 40.1344L73.745 40.1532L73.753 40.1718L75.5913 39.384ZM73.6303 37.201L72.7565 39L72.7664 39.0048L72.7763 39.0095L73.6303 37.201ZM70.1153 35.908C72.5653 35.908 74.3092 36.5792 75.5632 37.7423L78.2834 34.8097C76.1334 32.8155 73.3386 31.908 70.1153 31.908V35.908ZM75.5854 37.7626C76.726 38.7891 77.5133 40.6084 77.5133 43.713H81.5133C81.5133 40.0096 80.574 36.8709 78.2612 34.7894L75.5854 37.7626ZM77.5133 43.713C77.5133 46.8146 76.7272 48.6564 75.5738 49.7109L78.2729 52.6631C80.5728 50.5603 81.5133 47.4194 81.5133 43.713H77.5133ZM75.5748 49.71C74.3216 50.8542 72.5736 51.518 70.1153 51.518V55.518C73.3304 55.518 76.121 54.6278 78.2719 52.664L75.5748 49.71ZM70.1153 51.518C67.6583 51.518 65.8906 50.8546 64.6082 49.7004L61.9324 52.6736C64.1033 54.6274 66.899 55.518 70.1153 55.518V51.518ZM64.6304 49.7207C63.4953 48.6678 62.7173 46.8223 62.7173 43.713H58.7173C58.7173 47.4117 59.6413 50.5489 61.9102 52.6533L64.6304 49.7207ZM62.7173 43.713C62.7173 40.6006 63.4965 38.7777 64.6189 37.753L61.9218 34.799C59.6401 36.8823 58.7173 40.0174 58.7173 43.713H62.7173ZM64.6199 37.7521C65.903 36.5789 67.6664 35.908 70.1153 35.908V31.908C66.8909 31.908 64.091 32.8158 61.9208 34.7999L64.6199 37.7521ZM70.1153 34.572C68.4763 34.572 66.965 34.7995 65.7093 35.3925L67.4173 39.0095C67.9376 38.7638 68.7943 38.572 70.1153 38.572V34.572ZM65.6895 35.402C64.3201 36.0671 63.3626 37.1994 62.764 38.5962L66.4406 40.1718C66.73 39.4966 67.0798 39.1736 67.4371 39L65.6895 35.402ZM62.7484 38.6336C62.1897 40.014 61.9733 41.7523 61.9733 43.713L65.9733 43.713C65.9733 41.9737 66.1763 40.826 66.4562 40.1344L62.7484 38.6336ZM61.9733 43.713C61.9733 45.6737 62.1897 47.412 62.7484 48.7924L66.4562 47.2916C66.1763 46.6 65.9733 45.4523 65.9733 43.713L61.9733 43.713ZM62.764 48.8298C63.3626 50.2266 64.3201 51.3589 65.6895 52.024L67.4371 48.426C67.0798 48.2525 66.73 47.9294 66.4406 47.2542L62.764 48.8298ZM65.7093 52.0335C66.965 52.6265 68.4763 52.854 70.1153 52.854V48.854C68.7943 48.854 67.9376 48.6622 67.4173 48.4165L65.7093 52.0335ZM70.1153 52.854C71.7497 52.854 73.2608 52.6279 74.5041 52.024L72.7565 48.426C72.2732 48.6607 71.4409 48.854 70.1153 48.854V52.854ZM74.4843 52.0335C75.8899 51.3698 76.8653 50.2251 77.4452 48.7924L73.7374 47.2916C73.4786 47.9309 73.1467 48.2416 72.7763 48.4165L74.4843 52.0335ZM77.4296 48.8298C78.0272 47.4355 78.2573 45.6819 78.2573 43.713H74.2573C74.2573 45.4441 74.0434 46.5766 73.753 47.2542L77.4296 48.8298ZM78.2573 43.713C78.2573 41.7441 78.0272 39.9906 77.4296 38.5962L73.753 40.1718C74.0434 40.8495 74.2573 41.9819 74.2573 43.713H78.2573ZM77.4452 38.6336C76.8653 37.2009 75.8899 36.0563 74.4843 35.3925L72.7763 39.0095C73.1467 39.1844 73.4786 39.4951 73.7374 40.1344L77.4452 38.6336ZM74.5041 35.402C73.2608 34.7981 71.7497 34.572 70.1153 34.572V38.572C71.4409 38.572 72.2732 38.7653 72.7565 39L74.5041 35.402ZM111.447 34.426H113.447V32.426H111.447V34.426ZM111.447 36.535L112.317 38.3361L113.447 37.7903V36.535H111.447ZM109.301 37.571L108.432 35.7699L107.671 36.1372L107.404 36.9385L109.301 37.571ZM104.158 53V55H105.6L106.056 53.6325L104.158 53ZM100.384 53L98.4779 53.6049L98.9205 55H100.384V53ZM96.2402 39.939L98.1466 39.3342L96.2402 33.3258L94.3339 39.3342L96.2402 39.939ZM92.0962 53V55H93.5599L94.0026 53.6049L92.0962 53ZM88.3222 53L86.4248 53.6325L86.8807 55H88.3222V53ZM83.1792 37.571L85.0766 36.9385L84.8094 36.1372L84.0487 35.7699L83.1792 37.571ZM81.0332 36.535H79.0332V37.7903L80.1637 38.3361L81.0332 36.535ZM81.0332 34.426V32.426H79.0332V34.426H81.0332ZM88.9142 34.426H90.9142V32.426H88.9142V34.426ZM88.9142 36.535L89.6757 38.3844L90.9142 37.8744V36.535H88.9142ZM86.3982 37.571L85.6367 35.7216L83.9199 36.4286L84.4974 38.1931L86.3982 37.571ZM90.3942 49.781L88.4934 50.4031L90.4228 56.2984L92.3004 50.3864L90.3942 49.781ZM94.8712 35.684V33.684H93.4079L92.965 35.0786L94.8712 35.684ZM98.0902 35.684L99.9955 35.0757L99.5511 33.684H98.0902V35.684ZM102.567 49.707L100.662 50.3153L102.529 56.1636L104.465 50.3377L102.567 49.707ZM106.6 37.571L108.498 38.2017L109.086 36.4318L107.362 35.7216L106.6 37.571ZM104.084 36.535H102.084V37.8744L103.323 38.3844L104.084 36.535ZM104.084 34.426V32.426H102.084V34.426H104.084ZM109.447 34.426V36.535H113.447V34.426H109.447ZM110.578 34.7339L108.432 35.7699L110.171 39.3721L112.317 38.3361L110.578 34.7339ZM107.404 36.9385L102.261 52.3676L106.056 53.6325L111.199 38.2035L107.404 36.9385ZM104.158 51H100.384V55H104.158V51ZM102.291 52.3952L98.1466 39.3342L94.3339 40.5439L98.4779 53.6049L102.291 52.3952ZM94.3339 39.3342L90.1899 52.3952L94.0026 53.6049L98.1466 40.5439L94.3339 39.3342ZM92.0962 51H88.3222V55H92.0962V51ZM90.2196 52.3676L85.0766 36.9385L81.2818 38.2035L86.4248 53.6325L90.2196 52.3676ZM84.0487 35.7699L81.9027 34.7339L80.1637 38.3361L82.3097 39.3721L84.0487 35.7699ZM83.0332 36.535V34.426H79.0332V36.535H83.0332ZM81.0332 36.426H88.9142V32.426H81.0332V36.426ZM86.9142 34.426V36.535H90.9142V34.426H86.9142ZM88.1527 34.6856L85.6367 35.7216L87.1597 39.4204L89.6757 38.3844L88.1527 34.6856ZM84.4974 38.1931L88.4934 50.4031L92.295 49.1589L88.299 36.9489L84.4974 38.1931ZM92.3004 50.3864L96.7774 36.2894L92.965 35.0786L88.488 49.1756L92.3004 50.3864ZM94.8712 37.684H98.0902V33.684H94.8712V37.684ZM96.185 36.2923L100.662 50.3153L104.472 49.0987L99.9955 35.0757L96.185 36.2923ZM104.465 50.3377L108.498 38.2017L104.702 36.9403L100.669 49.0763L104.465 50.3377ZM107.362 35.7216L104.846 34.6856L103.323 38.3844L105.839 39.4204L107.362 35.7216ZM106.084 36.535V34.426H102.084V36.535H106.084ZM104.084 36.426H111.447V32.426H104.084V36.426Z" fill="black"/>
</g>
<defs>
<filter id="filter0_i_206_53" x="0.00012207" y="0" width="127" height="119" filterUnits="userSpaceOnUse" color-interpolation-filters="sRGB">
<feFlood flood-opacity="0" result="BackgroundImageFix"/>
<feBlend mode="normal" in="SourceGraphic" in2="BackgroundImageFix" result="shape"/>
<feColorMatrix in="SourceAlpha" type="matrix" values="0 0 0 0 0 0 0 0 0 0 0 0 0 0 0 0 0 0 127 0" result="hardAlpha"/>
<feOffset dy="4"/>
<feGaussianBlur stdDeviation="2"/>
<feComposite in2="hardAlpha" operator="arithmetic" k2="-1" k3="1"/>
<feColorMatrix type="matrix" values="0 0 0 0 0 0 0 0 0 0 0 0 0 0 0 0 0 0 0.25 0"/>
<feBlend mode="normal" in2="shape" result="effect1_innerShadow_206_53"/>
</filter>
<clipPath id="clip0_206_53">
<rect width="127" height="115" fill="white" transform="translate(0.00012207)"/>
</clipPath>
</defs>
</svg>
