<svg width="124" height="104" viewBox="0 0 124 104" fill="none" xmlns="http://www.w3.org/2000/svg">
<path d="M89.7023 10.9305L67.4023 36.1305L89.7023 61.9305L96.6023 64.9305V70.4305H71.2023V64.9305L78.6023 61.9305L61.3023 41.9305L44.0023 61.9305L51.4023 64.9305V70.4305H27.4023V64.9305L34.3023 61.9305L56.8023 36.6305L34.7023 11.0305L27.8023 8.13054V2.43054H53.2023V8.13054L45.8023 11.0305L63.0023 31.0305L80.2023 10.9305L72.8023 7.93054V2.43054H96.6023V7.93054L89.7023 10.9305Z" fill="white"/>
<path d="M25.7154 37.492C27.4174 37.8127 28.6878 38.1703 29.5264 38.565C30.3651 38.9597 30.9324 39.4777 31.2284 40.119C31.5244 40.7357 31.6724 41.6113 31.6724 42.746C31.6724 44.152 31.4134 45.2743 30.8954 46.113C30.4021 46.927 29.5141 47.5313 28.2314 47.926C26.9734 48.3207 25.1851 48.518 22.8664 48.518C21.6824 48.518 20.5354 48.4563 19.4254 48.333C18.3154 48.2343 16.9711 48.0493 15.3924 47.778V42.45H17.6124L18.6854 45.595C19.9928 45.817 21.4234 45.928 22.9774 45.928C24.5068 45.928 25.6538 45.854 26.4184 45.706C27.1831 45.5333 27.7011 45.262 27.9724 44.892C28.2684 44.4973 28.4164 43.93 28.4164 43.19C28.4164 42.524 28.2808 42.0307 28.0094 41.71C27.7381 41.3647 27.3311 41.118 26.7884 40.97C26.2704 40.822 25.3578 40.6493 24.0504 40.452L21.5344 40.008C19.7831 39.6873 18.4634 39.3297 17.5754 38.935C16.6874 38.5403 16.0584 38.01 15.6884 37.344C15.3431 36.6533 15.1704 35.6913 15.1704 34.458C15.1704 33.1013 15.4048 32.0283 15.8734 31.239C16.3668 30.4497 17.2054 29.87 18.3894 29.5C19.5734 29.1053 21.2384 28.908 23.3844 28.908C25.5304 28.908 28.0711 29.1547 31.0064 29.648V34.791H28.8604L27.8614 31.905C26.2334 31.6337 24.6918 31.498 23.2364 31.498C21.9538 31.498 20.9671 31.5843 20.2764 31.757C19.5858 31.9297 19.1048 32.201 18.8334 32.571C18.5621 32.941 18.4264 33.4713 18.4264 34.162C18.4264 34.8527 18.5744 35.3707 18.8704 35.716C19.1664 36.0367 19.6474 36.2957 20.3134 36.493C20.9794 36.6657 22.1388 36.8877 23.7914 37.159C24.4081 37.233 25.0494 37.344 25.7154 37.492ZM56.402 45.965V48H50.778V35.753C50.778 34.2977 50.4203 33.2493 49.705 32.608C49.0144 31.942 47.9907 31.609 46.634 31.609C45.7707 31.609 44.9197 31.72 44.081 31.942C43.267 32.164 42.0707 32.5587 40.492 33.126V44.855L43.008 45.965V48H34.868V45.965L37.384 44.855V24.875L34.868 23.839V21.73H40.492V30.721C41.75 30.0797 42.9463 29.6233 44.081 29.352C45.2403 29.056 46.4243 28.908 47.633 28.908C49.187 28.908 50.4203 29.1547 51.333 29.648C52.2457 30.1167 52.8993 30.8813 53.294 31.942C53.6887 32.978 53.886 34.384 53.886 36.16V44.855L56.402 45.965ZM68.6152 28.908C71.4519 28.908 73.7212 29.6973 75.4232 31.276C77.1499 32.83 78.0132 35.309 78.0132 38.713C78.0132 42.117 77.1499 44.6083 75.4232 46.187C73.7212 47.741 71.4519 48.518 68.6152 48.518C65.7785 48.518 63.4969 47.741 61.7702 46.187C60.0682 44.6083 59.2172 42.117 59.2172 38.713C59.2172 35.309 60.0682 32.83 61.7702 31.276C63.4969 29.6973 65.7785 28.908 68.6152 28.908ZM68.6152 31.572C67.1352 31.572 65.9512 31.7817 65.0632 32.201C64.1999 32.6203 63.5462 33.348 63.1022 34.384C62.6829 35.42 62.4732 36.863 62.4732 38.713C62.4732 40.563 62.6829 42.006 63.1022 43.042C63.5462 44.078 64.1999 44.8057 65.0632 45.225C65.9512 45.6443 67.1352 45.854 68.6152 45.854C70.0952 45.854 71.2669 45.6443 72.1302 45.225C73.0182 44.8057 73.6719 44.078 74.0912 43.042C74.5352 42.006 74.7572 40.563 74.7572 38.713C74.7572 36.863 74.5352 35.42 74.0912 34.384C73.6719 33.348 73.0182 32.6203 72.1302 32.201C71.2669 31.7817 70.0952 31.572 68.6152 31.572ZM109.947 29.426V31.535L107.801 32.571L102.658 48H98.8841L94.7401 34.939L90.5961 48H86.8221L81.6791 32.571L79.5331 31.535V29.426H87.4141V31.535L84.8981 32.571L88.8941 44.781L93.3711 30.684H96.5901L101.067 44.707L105.1 32.571L102.584 31.535V29.426H109.947Z" fill="white"/>
<path d="M25.7154 37.492L25.2816 39.4444L25.3132 39.4514L25.3451 39.4574L25.7154 37.492ZM29.5264 38.565L30.378 36.7554L30.378 36.7554L29.5264 38.565ZM31.2284 40.119L29.4125 40.9571L29.4188 40.9708L29.4254 40.9845L31.2284 40.119ZM30.8954 46.113L29.1938 45.062L29.1894 45.0692L29.185 45.0764L30.8954 46.113ZM28.2314 47.926L27.6432 46.0144L27.6327 46.0177L28.2314 47.926ZM19.4254 48.333L19.6463 46.3452L19.6244 46.3428L19.6025 46.3409L19.4254 48.333ZM15.3924 47.778H13.3924V49.4636L15.0536 49.7491L15.3924 47.778ZM15.3924 42.45V40.45H13.3924V42.45H15.3924ZM17.6124 42.45L19.5053 41.8042L19.0433 40.45H17.6124V42.45ZM18.6854 45.595L16.7926 46.2408L17.177 47.3675L18.3506 47.5668L18.6854 45.595ZM26.4184 45.706L26.7985 47.6696L26.8288 47.6637L26.859 47.6569L26.4184 45.706ZM27.9724 44.892L26.3724 43.692L26.366 43.7006L26.3596 43.7093L27.9724 44.892ZM28.0094 41.71L26.4368 42.9456L26.4592 42.9742L26.4827 43.0019L28.0094 41.71ZM26.7884 40.97L26.239 42.893L26.2506 42.8964L26.2622 42.8995L26.7884 40.97ZM24.0504 40.452L23.7029 42.4216L23.7273 42.4259L23.7519 42.4296L24.0504 40.452ZM21.5344 40.008L21.1742 41.9753L21.1869 41.9776L21.5344 40.008ZM17.5754 38.935L16.7632 40.7626L16.7632 40.7626L17.5754 38.935ZM15.6884 37.344L13.8996 38.2384L13.919 38.2773L13.9401 38.3153L15.6884 37.344ZM15.8734 31.239L14.1774 30.179L14.1654 30.1983L14.1537 30.2179L15.8734 31.239ZM18.3894 29.5L18.986 31.409L19.004 31.4033L19.0219 31.3974L18.3894 29.5ZM31.0064 29.648H33.0064V27.9561L31.3379 27.6757L31.0064 29.648ZM31.0064 34.791V36.791H33.0064V34.791H31.0064ZM28.8604 34.791L26.9705 35.4452L27.4363 36.791H28.8604V34.791ZM27.8614 31.905L29.7514 31.2508L29.3626 30.1276L28.1902 29.9322L27.8614 31.905ZM20.2764 31.757L19.7914 29.8167L19.7914 29.8167L20.2764 31.757ZM18.8334 32.571L17.2206 31.3883L17.2206 31.3883L18.8334 32.571ZM18.8704 35.716L17.3519 37.0176L17.3759 37.0455L17.4008 37.0726L18.8704 35.716ZM20.3134 36.493L19.7453 38.4106L19.7782 38.4204L19.8115 38.429L20.3134 36.493ZM23.7914 37.159L23.4674 39.1326L23.5101 39.1396L23.5531 39.1448L23.7914 37.159ZM25.3451 39.4574C26.9981 39.7688 28.069 40.0895 28.6748 40.3746L30.378 36.7554C29.3065 36.2511 27.8368 35.8565 26.0857 35.5266L25.3451 39.4574ZM28.6748 40.3746C29.2224 40.6323 29.3682 40.861 29.4125 40.9571L33.0443 39.2809C32.4967 38.0943 31.5078 37.287 30.378 36.7554L28.6748 40.3746ZM29.4254 40.9845C29.5334 41.2094 29.6724 41.7379 29.6724 42.746H33.6724C33.6724 41.4848 33.5155 40.2619 33.0315 39.2535L29.4254 40.9845ZM29.6724 42.746C29.6724 43.931 29.4505 44.6464 29.1938 45.062L32.597 47.164C33.3763 45.9023 33.6724 44.373 33.6724 42.746H29.6724ZM29.185 45.0764C29.0333 45.3268 28.6484 45.7052 27.6433 46.0144L28.8196 49.8376C30.3798 49.3575 31.7709 48.5272 32.6058 47.1496L29.185 45.0764ZM27.6327 46.0177C26.6619 46.3223 25.1112 46.518 22.8664 46.518V50.518C25.259 50.518 27.2849 50.3191 28.8301 49.8343L27.6327 46.0177ZM22.8664 46.518C21.7518 46.518 20.6787 46.4599 19.6463 46.3452L19.2046 50.3208C20.3921 50.4527 21.613 50.518 22.8664 50.518V46.518ZM19.6025 46.3409C18.5644 46.2486 17.2773 46.0726 15.7312 45.8069L15.0536 49.7491C16.6649 50.026 18.0665 50.2201 19.2484 50.3251L19.6025 46.3409ZM17.3924 47.778V42.45H13.3924V47.778H17.3924ZM15.3924 44.45H17.6124V40.45H15.3924V44.45ZM15.7196 43.0958L16.7926 46.2408L20.5783 44.9492L19.5053 41.8042L15.7196 43.0958ZM18.3506 47.5668C19.7855 47.8104 21.3298 47.928 22.9774 47.928V43.928C21.5171 43.928 20.2001 43.8236 19.0203 43.6232L18.3506 47.5668ZM22.9774 47.928C24.5373 47.928 25.8399 47.8551 26.7985 47.6696L26.0384 43.7424C25.4676 43.8529 24.4763 43.928 22.9774 43.928V47.928ZM26.859 47.6569C27.7885 47.447 28.886 47.0282 29.5852 46.0747L26.3596 43.7093C26.4469 43.5903 26.5131 43.5695 26.4524 43.6013C26.3895 43.6343 26.2443 43.695 25.9779 43.7551L26.859 47.6569ZM29.5724 46.092C30.2291 45.2165 30.4164 44.1571 30.4164 43.19H26.4164C26.4164 43.4319 26.3917 43.5833 26.3702 43.6657C26.3496 43.7445 26.3382 43.7377 26.3724 43.692L29.5724 46.092ZM30.4164 43.19C30.4164 42.3123 30.2476 41.2589 29.5362 40.4181L26.4827 43.0019C26.3944 42.8976 26.379 42.8243 26.3863 42.8508C26.3948 42.8818 26.4164 42.9855 26.4164 43.19H30.4164ZM29.5821 40.4744C28.9792 39.7071 28.1546 39.2695 27.3147 39.0405L26.2622 42.8995C26.3857 42.9332 26.4455 42.9651 26.4641 42.9764C26.4791 42.9855 26.4618 42.9774 26.4368 42.9456L29.5821 40.4744ZM27.3379 39.047C26.6826 38.8597 25.6544 38.6715 24.3489 38.4744L23.7519 42.4296C25.0611 42.6272 25.8583 42.7843 26.239 42.893L27.3379 39.047ZM24.398 38.4824L21.882 38.0384L21.1869 41.9776L23.7029 42.4216L24.398 38.4824ZM21.8946 38.0407C20.193 37.7291 19.0578 37.4052 18.3877 37.1074L16.7632 40.7626C17.869 41.2541 19.3732 41.6455 21.1742 41.9753L21.8946 38.0407ZM18.3877 37.1074C17.7861 36.84 17.544 36.5658 17.4367 36.3727L13.9401 38.3153C14.5728 39.4542 15.5887 40.2406 16.7632 40.7626L18.3877 37.1074ZM17.4773 36.4496C17.3296 36.1542 17.1704 35.5464 17.1704 34.458H13.1704C13.1704 35.8363 13.3566 37.1525 13.8996 38.2384L17.4773 36.4496ZM17.1704 34.458C17.1704 33.3004 17.3754 32.6268 17.5931 32.2601L14.1537 30.2179C13.4341 31.4298 13.1704 32.9023 13.1704 34.458H17.1704ZM17.5694 32.299C17.7357 32.033 18.1048 31.6843 18.986 31.409L17.7929 27.591C16.3061 28.0557 14.9979 28.8663 14.1774 30.179L17.5694 32.299ZM19.0219 31.3974C19.9066 31.1025 21.3222 30.908 23.3844 30.908V26.908C21.1547 26.908 19.2403 27.1082 17.757 27.6026L19.0219 31.3974ZM23.3844 30.908C25.3861 30.908 27.8106 31.1389 30.6749 31.6203L31.3379 27.6757C28.3316 27.1704 25.6748 26.908 23.3844 26.908V30.908ZM29.0064 29.648V34.791H33.0064V29.648H29.0064ZM31.0064 32.791H28.8604V36.791H31.0064V32.791ZM30.7504 34.1368L29.7514 31.2508L25.9715 32.5592L26.9705 35.4452L30.7504 34.1368ZM28.1902 29.9322C26.4677 29.6451 24.8154 29.498 23.2364 29.498V33.498C24.5681 33.498 25.9991 33.6222 27.5326 33.8778L28.1902 29.9322ZM23.2364 29.498C21.8984 29.498 20.7193 29.5847 19.7914 29.8167L20.7615 33.6973C21.2149 33.5839 22.0092 33.498 23.2364 33.498V29.498ZM19.7914 29.8167C18.8851 30.0433 17.8844 30.4832 17.2206 31.3883L20.4462 33.7537C20.3833 33.8395 20.3377 33.856 20.3803 33.832C20.4271 33.8055 20.5428 33.752 20.7615 33.6973L19.7914 29.8167ZM17.2206 31.3883C16.5994 32.2354 16.4264 33.2494 16.4264 34.162H20.4264C20.4264 33.9424 20.4485 33.8094 20.4658 33.7419C20.4822 33.6776 20.4879 33.6969 20.4462 33.7537L17.2206 31.3883ZM16.4264 34.162C16.4264 35.092 16.6191 36.1627 17.3519 37.0176L20.3889 34.4144C20.4598 34.497 20.4698 34.5516 20.4605 34.5191C20.4495 34.4808 20.4264 34.371 20.4264 34.162H16.4264ZM17.4008 37.0726C18.0455 37.771 18.9191 38.1658 19.7453 38.4106L20.8816 34.5754C20.6467 34.5058 20.4935 34.4394 20.4014 34.3898C20.3089 34.34 20.3054 34.322 20.34 34.3594L17.4008 37.0726ZM19.8115 38.429C20.5751 38.6269 21.8154 38.8614 23.4674 39.1326L24.1155 35.1854C22.4621 34.914 21.3838 34.7044 20.8154 34.557L19.8115 38.429ZM23.5531 39.1448C24.0981 39.2101 24.674 39.3093 25.2816 39.4444L26.1493 35.5396C25.4249 35.3787 24.7181 35.2559 24.0297 35.1732L23.5531 39.1448ZM56.402 45.965H58.402V44.6614L57.2093 44.1352L56.402 45.965ZM56.402 48V50H58.402V48H56.402ZM50.778 48H48.778V50H50.778V48ZM49.705 32.608L48.3167 34.0477L48.3429 34.0729L48.3699 34.0971L49.705 32.608ZM44.081 31.942L43.5692 30.0086L43.562 30.0105L43.5548 30.0125L44.081 31.942ZM40.492 33.126L39.8156 31.2439L38.492 31.7195V33.126H40.492ZM40.492 44.855H38.492V46.1586L39.6847 46.6848L40.492 44.855ZM43.008 45.965H45.008V44.6614L43.8153 44.1352L43.008 45.965ZM43.008 48V50H45.008V48H43.008ZM34.868 48H32.868V50H34.868V48ZM34.868 45.965L34.0607 44.1352L32.868 44.6614V45.965H34.868ZM37.384 44.855L38.1913 46.6848L39.384 46.1586V44.855H37.384ZM37.384 24.875H39.384V23.5356L38.1455 23.0256L37.384 24.875ZM34.868 23.839H32.868V25.1784L34.1065 25.6884L34.868 23.839ZM34.868 21.73V19.73H32.868V21.73H34.868ZM40.492 21.73H42.492V19.73H40.492V21.73ZM40.492 30.721H38.492V33.9855L41.4004 32.5028L40.492 30.721ZM44.081 29.352L44.5462 31.2972L44.561 31.2936L44.5758 31.2898L44.081 29.352ZM51.333 29.648L50.382 31.4074L50.4006 31.4175L50.4194 31.4271L51.333 29.648ZM53.294 31.942L51.4196 32.6395L51.4223 32.6467L51.425 32.654L53.294 31.942ZM53.886 44.855H51.886V46.1586L53.0787 46.6848L53.886 44.855ZM54.402 45.965V48H58.402V45.965H54.402ZM56.402 46H50.778V50H56.402V46ZM52.778 48V35.753H48.778V48H52.778ZM52.778 35.753C52.778 34.0224 52.3563 32.2989 51.0401 31.1189L48.3699 34.0971C48.4844 34.1998 48.778 34.573 48.778 35.753H52.778ZM51.0933 31.1683C49.8992 30.0168 48.293 29.609 46.634 29.609V33.609C47.6884 33.609 48.1295 33.8672 48.3167 34.0477L51.0933 31.1683ZM46.634 29.609C45.5971 29.609 44.5741 29.7426 43.5692 30.0086L44.5928 33.8754C45.2653 33.6974 45.9443 33.609 46.634 33.609V29.609ZM43.5548 30.0125C42.6621 30.2559 41.4056 30.6725 39.8156 31.2439L41.1684 35.0081C42.7358 34.4449 43.8719 34.0721 44.6073 33.8715L43.5548 30.0125ZM38.492 33.126V44.855H42.492V33.126H38.492ZM39.6847 46.6848L42.2007 47.7948L43.8153 44.1352L41.2993 43.0252L39.6847 46.6848ZM41.008 45.965V48H45.008V45.965H41.008ZM43.008 46H34.868V50H43.008V46ZM36.868 48V45.965H32.868V48H36.868ZM35.6753 47.7948L38.1913 46.6848L36.5767 43.0252L34.0607 44.1352L35.6753 47.7948ZM39.384 44.855V24.875H35.384V44.855H39.384ZM38.1455 23.0256L35.6295 21.9896L34.1065 25.6884L36.6225 26.7244L38.1455 23.0256ZM36.868 23.839V21.73H32.868V23.839H36.868ZM34.868 23.73H40.492V19.73H34.868V23.73ZM38.492 21.73V30.721H42.492V21.73H38.492ZM41.4004 32.5028C42.546 31.9188 43.5933 31.525 44.5462 31.2972L43.6159 27.4068C42.2994 27.7217 40.9541 28.2405 39.5836 28.9392L41.4004 32.5028ZM44.5758 31.2898C45.5718 31.0355 46.5895 30.908 47.633 30.908V26.908C46.2592 26.908 44.9089 27.0765 43.5862 27.4142L44.5758 31.2898ZM47.633 30.908C49.0073 30.908 49.8712 31.1313 50.382 31.4074L52.2841 27.8886C50.9695 27.178 49.3668 26.908 47.633 26.908V30.908ZM50.4194 31.4271C50.8408 31.6435 51.1796 31.9944 51.4196 32.6395L55.1685 31.2445C54.6191 29.7683 53.6505 28.5898 52.2466 27.8689L50.4194 31.4271ZM51.425 32.654C51.6968 33.3673 51.886 34.4987 51.886 36.16H55.886C55.886 34.2693 55.6806 32.5887 55.163 31.23L51.425 32.654ZM51.886 36.16V44.855H55.886V36.16H51.886ZM53.0787 46.6848L55.5947 47.7948L57.2093 44.1352L54.6933 43.0252L53.0787 46.6848ZM75.4232 31.276L74.0631 32.7423L74.0741 32.7525L74.0853 32.7626L75.4232 31.276ZM75.4232 46.187L76.7717 47.664L76.7727 47.6631L75.4232 46.187ZM61.7702 46.187L60.4101 47.6533L60.4211 47.6635L60.4323 47.6736L61.7702 46.187ZM61.7702 31.276L63.1187 32.753L63.1197 32.7521L61.7702 31.276ZM65.0632 32.201L64.2092 30.3925L64.1993 30.3972L64.1894 30.402L65.0632 32.201ZM63.1022 34.384L61.2639 33.5962L61.2559 33.6148L61.2483 33.6336L63.1022 34.384ZM63.1022 43.042L61.2483 43.7924L61.2559 43.8112L61.2639 43.8298L63.1022 43.042ZM65.0632 45.225L64.1894 47.024L64.1993 47.0288L64.2092 47.0335L65.0632 45.225ZM72.1302 45.225L71.2762 43.4165L71.2663 43.4212L71.2564 43.426L72.1302 45.225ZM74.0912 43.042L72.2529 42.2542L72.2449 42.2728L72.2373 42.2916L74.0912 43.042ZM74.0912 34.384L72.2373 35.1344L72.2449 35.1532L72.2529 35.1718L74.0912 34.384ZM72.1302 32.201L71.2564 34L71.2663 34.0048L71.2762 34.0095L72.1302 32.201ZM68.6152 30.908C71.0652 30.908 72.8091 31.5792 74.0631 32.7423L76.7833 29.8097C74.6333 27.8155 71.8385 26.908 68.6152 26.908V30.908ZM74.0853 32.7626C75.2259 33.7891 76.0132 35.6084 76.0132 38.713H80.0132C80.0132 35.0096 79.0739 31.8709 76.7611 29.7894L74.0853 32.7626ZM76.0132 38.713C76.0132 41.8146 75.227 43.6564 74.0737 44.7109L76.7727 47.6631C79.0727 45.5602 80.0132 42.4194 80.0132 38.713H76.0132ZM74.0747 44.71C72.8215 45.8542 71.0735 46.518 68.6152 46.518V50.518C71.8303 50.518 74.6209 49.6278 76.7717 47.664L74.0747 44.71ZM68.6152 46.518C66.1581 46.518 64.3905 45.8546 63.1081 44.7004L60.4323 47.6736C62.6032 49.6274 65.3989 50.518 68.6152 50.518V46.518ZM63.1303 44.7207C61.9952 43.6678 61.2172 41.8223 61.2172 38.713H57.2172C57.2172 42.4117 58.1412 45.5489 60.4101 47.6533L63.1303 44.7207ZM61.2172 38.713C61.2172 35.6006 61.9964 33.7777 63.1187 32.753L60.4217 29.799C58.14 31.8823 57.2172 35.0174 57.2172 38.713H61.2172ZM63.1197 32.7521C64.4029 31.5789 66.1663 30.908 68.6152 30.908V26.908C65.3907 26.908 62.5908 27.8158 60.4207 29.7999L63.1197 32.7521ZM68.6152 29.572C66.9762 29.572 65.4649 29.7995 64.2092 30.3925L65.9172 34.0095C66.4375 33.7638 67.2942 33.572 68.6152 33.572V29.572ZM64.1894 30.402C62.82 31.0671 61.8625 32.1994 61.2639 33.5962L64.9405 35.1718C65.2299 34.4966 65.5797 34.1736 65.937 34L64.1894 30.402ZM61.2483 33.6336C60.6896 35.014 60.4732 36.7523 60.4732 38.713H64.4732C64.4732 36.9737 64.6761 35.826 64.9561 35.1344L61.2483 33.6336ZM60.4732 38.713C60.4732 40.6737 60.6896 42.412 61.2483 43.7924L64.9561 42.2916C64.6761 41.6 64.4732 40.4523 64.4732 38.713H60.4732ZM61.2639 43.8298C61.8625 45.2266 62.82 46.3589 64.1894 47.024L65.937 43.426C65.5797 43.2524 65.2299 42.9294 64.9405 42.2542L61.2639 43.8298ZM64.2092 47.0335C65.4649 47.6265 66.9762 47.854 68.6152 47.854V43.854C67.2942 43.854 66.4375 43.6622 65.9172 43.4165L64.2092 47.0335ZM68.6152 47.854C70.2496 47.854 71.7606 47.6279 73.004 47.024L71.2564 43.426C70.7731 43.6607 69.9408 43.854 68.6152 43.854V47.854ZM72.9842 47.0335C74.3898 46.3697 75.3652 45.2251 75.9451 43.7924L72.2373 42.2916C71.9785 42.9309 71.6466 43.2416 71.2762 43.4165L72.9842 47.0335ZM75.9295 43.8298C76.5271 42.4354 76.7572 40.6819 76.7572 38.713H72.7572C72.7572 40.4441 72.5433 41.5766 72.2529 42.2542L75.9295 43.8298ZM76.7572 38.713C76.7572 36.7441 76.5271 34.9906 75.9295 33.5962L72.2529 35.1718C72.5433 35.8494 72.7572 36.9819 72.7572 38.713H76.7572ZM75.9451 33.6336C75.3652 32.2009 74.3898 31.0563 72.9842 30.3925L71.2762 34.0095C71.6466 34.1844 71.9785 34.4951 72.2373 35.1344L75.9451 33.6336ZM73.004 30.402C71.7606 29.7981 70.2496 29.572 68.6152 29.572V33.572C69.9408 33.572 70.7731 33.7653 71.2564 34L73.004 30.402ZM109.947 29.426H111.947V27.426H109.947V29.426ZM109.947 31.535L110.817 33.3361L111.947 32.7903V31.535H109.947ZM107.801 32.571L106.932 30.7699L106.171 31.1371L105.904 31.9385L107.801 32.571ZM102.658 48V50H104.1L104.555 48.6325L102.658 48ZM98.8841 48L96.9777 48.6048L97.4204 50H98.8841V48ZM94.7401 34.939L96.6464 34.3342L94.7401 28.3258L92.8337 34.3342L94.7401 34.939ZM90.5961 48V50H92.0598L92.5024 48.6048L90.5961 48ZM86.8221 48L84.9247 48.6325L85.3806 50H86.8221V48ZM81.6791 32.571L83.5765 31.9385L83.3093 31.1371L82.5486 30.7699L81.6791 32.571ZM79.5331 31.535H77.5331V32.7903L78.6636 33.3361L79.5331 31.535ZM79.5331 29.426V27.426H77.5331V29.426H79.5331ZM87.4141 29.426H89.4141V27.426H87.4141V29.426ZM87.4141 31.535L88.1756 33.3844L89.4141 32.8744V31.535H87.4141ZM84.8981 32.571L84.1366 30.7216L82.4198 31.4286L82.9973 33.1931L84.8981 32.571ZM88.8941 44.781L86.9933 45.4031L88.9227 51.2984L90.8003 45.3864L88.8941 44.781ZM93.3711 30.684V28.684H91.9078L91.4649 30.0786L93.3711 30.684ZM96.5901 30.684L98.4953 30.0757L98.051 28.684H96.5901V30.684ZM101.067 44.707L99.1618 45.3153L101.029 51.1636L102.965 45.3377L101.067 44.707ZM105.1 32.571L106.998 33.2017L107.586 31.4318L105.862 30.7216L105.1 32.571ZM102.584 31.535H100.584V32.8744L101.823 33.3844L102.584 31.535ZM102.584 29.426V27.426H100.584V29.426H102.584ZM107.947 29.426V31.535H111.947V29.426H107.947ZM109.078 29.7339L106.932 30.7699L108.671 34.3721L110.817 33.3361L109.078 29.7339ZM105.904 31.9385L100.761 47.3675L104.555 48.6325L109.698 33.2035L105.904 31.9385ZM102.658 46H98.8841V50H102.658V46ZM100.79 47.3952L96.6464 34.3342L92.8337 35.5438L96.9777 48.6048L100.79 47.3952ZM92.8337 34.3342L88.6897 47.3952L92.5024 48.6048L96.6464 35.5438L92.8337 34.3342ZM90.5961 46H86.8221V50H90.5961V46ZM88.7195 47.3675L83.5765 31.9385L79.7817 33.2035L84.9247 48.6325L88.7195 47.3675ZM82.5486 30.7699L80.4026 29.7339L78.6636 33.3361L80.8096 34.3721L82.5486 30.7699ZM81.5331 31.535V29.426H77.5331V31.535H81.5331ZM79.5331 31.426H87.4141V27.426H79.5331V31.426ZM85.4141 29.426V31.535H89.4141V29.426H85.4141ZM86.6526 29.6856L84.1366 30.7216L85.6596 34.4204L88.1756 33.3844L86.6526 29.6856ZM82.9973 33.1931L86.9933 45.4031L90.7949 44.1589L86.7989 31.9489L82.9973 33.1931ZM90.8003 45.3864L95.2773 31.2894L91.4649 30.0786L86.9879 44.1756L90.8003 45.3864ZM93.3711 32.684H96.5901V28.684H93.3711V32.684ZM94.6848 31.2923L99.1618 45.3153L102.972 44.0987L98.4953 30.0757L94.6848 31.2923ZM102.965 45.3377L106.998 33.2017L103.202 31.9403L99.1691 44.0763L102.965 45.3377ZM105.862 30.7216L103.346 29.6856L101.823 33.3844L104.339 34.4204L105.862 30.7216ZM104.584 31.535V29.426H100.584V31.535H104.584ZM102.584 31.426H109.947V27.426H102.584V31.426Z" fill="black"/>
</svg>
