<svg xmlns="http://www.w3.org/2000/svg" viewBox="0 0 82.99 69"><defs><style>.cls-1,.cls-3{fill:#fff;}.cls-1{stroke:#000;}.cls-1,.cls-2,.cls-3{stroke-miterlimit:10;}.cls-2,.cls-3{stroke:#fff;}</style></defs><g id="Camada_2" data-name="Camada 2"><g id="Camada_1-2" data-name="Camada 1"><path class="cls-1" d="M69.49,9,48.83,35.67,69.49,60l6.9,3v5.5H51V63l7.4-3L41,44.69,23.79,60l7.4,3v5.5h-24V63l6.9-3,19-24.46L14.49,9.1,7.59,6.2V.5H33V6.2l-7.4,2.9,16.2,17.23L60,9l-7.4-3V.5h23.8V6Z"/><path class="cls-2" d="M9.62,36.38a13.37,13.37,0,0,1,3.3,1.07A3.05,3.05,0,0,1,14.39,39a7,7,0,0,1,.39,2.63A7.14,7.14,0,0,1,14.1,45a3.9,3.9,0,0,1-2.3,1.81,14.09,14.09,0,0,1-4.64.59,24,24,0,0,1-3-.18c-1-.1-2.12-.29-3.49-.56V41.34H2.61l.93,3.14a19.47,19.47,0,0,0,3.71.33,14.59,14.59,0,0,0,3-.22,2.12,2.12,0,0,0,1.34-.81,3.1,3.1,0,0,0,.39-1.7,2.54,2.54,0,0,0-.35-1.48,1.89,1.89,0,0,0-1.06-.74,17.62,17.62,0,0,0-2.37-.52L6,38.89a14.57,14.57,0,0,1-3.43-1.07A3.45,3.45,0,0,1,1,36.23,7.44,7.44,0,0,1,.5,33.34a7.07,7.07,0,0,1,.61-3.22,3.78,3.78,0,0,1,2.17-1.73,12.37,12.37,0,0,1,4.33-.6,35.58,35.58,0,0,1,6.59.74v5.15H12.34l-.86-2.89a21.3,21.3,0,0,0-4-.41,9.79,9.79,0,0,0-2.56.26,2.06,2.06,0,0,0-1.25.82,2.93,2.93,0,0,0-.35,1.59A2.55,2.55,0,0,0,3.7,34.6,2.69,2.69,0,0,0,5,35.38c.58.17,1.58.39,3,.66A15.81,15.81,0,0,1,9.62,36.38Z"/><path class="cls-2" d="M36.17,44.85v2H31.3V34.64a4.43,4.43,0,0,0-.93-3.15,3.39,3.39,0,0,0-2.65-1,7.6,7.6,0,0,0-2.21.34c-.7.22-1.74.61-3.11,1.18V43.74l2.18,1.11v2h-7v-2l2.18-1.11v-20l-2.18-1v-2.1H22.4v9a12.71,12.71,0,0,1,3.11-1.37,10.66,10.66,0,0,1,3.07-.45,6,6,0,0,1,3.2.74,4,4,0,0,1,1.7,2.3A14,14,0,0,1,34,35.05v8.69Z"/><path class="cls-2" d="M46.73,27.79a7.65,7.65,0,0,1,5.89,2.37c1.5,1.56,2.24,4,2.24,7.44s-.74,5.89-2.24,7.47a7.7,7.7,0,0,1-5.89,2.33,7.83,7.83,0,0,1-5.92-2.33q-2.2-2.37-2.21-7.47c0-3.41.74-5.88,2.21-7.44A7.78,7.78,0,0,1,46.73,27.79Z"/><path class="cls-3" d="M46.73,30.46a6.41,6.41,0,0,0-3.07.63A3.94,3.94,0,0,0,42,33.27a13.73,13.73,0,0,0-.54,4.33A13.73,13.73,0,0,0,42,41.93a4,4,0,0,0,1.7,2.18,6.41,6.41,0,0,0,3.07.63,6.2,6.2,0,0,0,3-.63,3.77,3.77,0,0,0,1.7-2.18,13,13,0,0,0,.58-4.33,13,13,0,0,0-.58-4.33,3.73,3.73,0,0,0-1.7-2.18,4.65,4.65,0,0,0-1.32-.48A8.88,8.88,0,0,0,46.73,30.46Z"/><polygon class="cls-2" points="82.49 28.31 82.49 30.42 80.63 31.46 76.18 46.88 72.92 46.88 69.33 33.82 65.75 46.88 62.48 46.88 58.03 31.46 56.18 30.42 56.18 28.31 63 28.31 63 30.42 60.82 31.46 64.28 43.67 68.15 29.57 70.93 29.57 74.81 43.59 78.3 31.46 76.12 30.42 76.12 28.31 82.49 28.31"/><path d="M48.53,35.58,50.69,32a13.68,13.68,0,0,1,1.14,8.49Z"/></g></g></svg>