<svg width="124" height="104" viewBox="0 0 124 104" fill="none" xmlns="http://www.w3.org/2000/svg">
<path d="M89.7023 10.9305L67.4023 36.1305L89.7023 61.9305L96.6023 64.9305V70.4305H71.2023V64.9305L78.6023 61.9305L61.3023 41.9305L44.0023 61.9305L51.4023 64.9305V70.4305H27.4023V64.9305L34.3023 61.9305L56.8023 36.6305L34.7023 11.0305L27.8023 8.13054V2.43054H53.2023V8.13054L45.8023 11.0305L63.0023 31.0305L80.2023 10.9305L72.8023 7.93054V2.43054H96.6023V7.93054L89.7023 10.9305Z" fill="white"/>
<path d="M25.7154 37.492C27.4174 37.8127 28.6878 38.1703 29.5264 38.565C30.3651 38.9597 30.9324 39.4777 31.2284 40.119C31.5244 40.7357 31.6724 41.6113 31.6724 42.746C31.6724 44.152 31.4134 45.2743 30.8954 46.113C30.4021 46.927 29.5141 47.5313 28.2314 47.926C26.9734 48.3207 25.1851 48.518 22.8664 48.518C21.6824 48.518 20.5354 48.4563 19.4254 48.333C18.3154 48.2343 16.9711 48.0493 15.3924 47.778V42.45H17.6124L18.6854 45.595C19.9928 45.817 21.4234 45.928 22.9774 45.928C24.5068 45.928 25.6538 45.854 26.4184 45.706C27.1831 45.5333 27.7011 45.262 27.9724 44.892C28.2684 44.4973 28.4164 43.93 28.4164 43.19C28.4164 42.524 28.2808 42.0307 28.0094 41.71C27.7381 41.3647 27.3311 41.118 26.7884 40.97C26.2704 40.822 25.3578 40.6493 24.0504 40.452L21.5344 40.008C19.7831 39.6873 18.4634 39.3297 17.5754 38.935C16.6874 38.5403 16.0584 38.01 15.6884 37.344C15.3431 36.6533 15.1704 35.6913 15.1704 34.458C15.1704 33.1013 15.4048 32.0283 15.8734 31.239C16.3668 30.4497 17.2054 29.87 18.3894 29.5C19.5734 29.1053 21.2384 28.908 23.3844 28.908C25.5304 28.908 28.0711 29.1547 31.0064 29.648V34.791H28.8604L27.8614 31.905C26.2334 31.6337 24.6918 31.498 23.2364 31.498C21.9538 31.498 20.9671 31.5843 20.2764 31.757C19.5858 31.9297 19.1048 32.201 18.8334 32.571C18.5621 32.941 18.4264 33.4713 18.4264 34.162C18.4264 34.8527 18.5744 35.3707 18.8704 35.716C19.1664 36.0367 19.6474 36.2957 20.3134 36.493C20.9794 36.6657 22.1388 36.8877 23.7914 37.159C24.4081 37.233 25.0494 37.344 25.7154 37.492ZM56.402 45.965V48H50.778V35.753C50.778 34.2977 50.4203 33.2493 49.705 32.608C49.0144 31.942 47.9907 31.609 46.634 31.609C45.7707 31.609 44.9197 31.72 44.081 31.942C43.267 32.164 42.0707 32.5587 40.492 33.126V44.855L43.008 45.965V48H34.868V45.965L37.384 44.855V24.875L34.868 23.839V21.73H40.492V30.721C41.75 30.0797 42.9463 29.6233 44.081 29.352C45.2403 29.056 46.4243 28.908 47.633 28.908C49.187 28.908 50.4203 29.1547 51.333 29.648C52.2457 30.1167 52.8993 30.8813 53.294 31.942C53.6887 32.978 53.886 34.384 53.886 36.16V44.855L56.402 45.965ZM68.6152 28.908C71.4519 28.908 73.7212 29.6973 75.4232 31.276C77.1499 32.83 78.0132 35.309 78.0132 38.713C78.0132 42.117 77.1499 44.6083 75.4232 46.187C73.7212 47.741 71.4519 48.518 68.6152 48.518C65.7785 48.518 63.4969 47.741 61.7702 46.187C60.0682 44.6083 59.2172 42.117 59.2172 38.713C59.2172 35.309 60.0682 32.83 61.7702 31.276C63.4969 29.6973 65.7785 28.908 68.6152 28.908ZM68.6152 31.572C67.1352 31.572 65.9512 31.7817 65.0632 32.201C64.1999 32.6203 63.5462 33.348 63.1022 34.384C62.6829 35.42 62.4732 36.863 62.4732 38.713C62.4732 40.563 62.6829 42.006 63.1022 43.042C63.5462 44.078 64.1999 44.8057 65.0632 45.225C65.9512 45.6443 67.1352 45.854 68.6152 45.854C70.0952 45.854 71.2669 45.6443 72.1302 45.225C73.0182 44.8057 73.6719 44.078 74.0912 43.042C74.5352 42.006 74.7572 40.563 74.7572 38.713C74.7572 36.863 74.5352 35.42 74.0912 34.384C73.6719 33.348 73.0182 32.6203 72.1302 32.201C71.2669 31.7817 70.0952 31.572 68.6152 31.572ZM109.947 29.426V31.535L107.801 32.571L102.658 48H98.8841L94.7401 34.939L90.5961 48H86.8221L81.6791 32.571L79.5331 31.535V29.426H87.4141V31.535L84.8981 32.571L88.8941 44.781L93.3711 30.684H96.5901L101.067 44.707L105.1 32.571L102.584 31.535V29.426H109.947Z" fill="white"/>
<path d="M25.7154 37.492L24.8477 41.3967L24.9111 41.4108L24.9748 41.4228L25.7154 37.492ZM29.5264 38.565L31.2296 34.9457L31.2296 34.9457L29.5264 38.565ZM31.2284 40.119L27.5966 41.7952L27.6093 41.8227L27.6223 41.8499L31.2284 40.119ZM30.8954 46.113L27.4922 44.011L27.4834 44.0254L27.4746 44.0398L30.8954 46.113ZM28.2314 47.926L27.0551 44.1029L27.0446 44.1061L27.0341 44.1094L28.2314 47.926ZM19.4254 48.333L19.8672 44.3575L19.8234 44.3526L19.7796 44.3487L19.4254 48.333ZM15.3924 47.778H11.3924V51.1492L14.7149 51.7202L15.3924 47.778ZM15.3924 42.45V38.45H11.3924V42.45H15.3924ZM17.6124 42.45L21.3982 41.1584L20.4741 38.45H17.6124V42.45ZM18.6854 45.595L14.8997 46.8866L15.6685 49.14L18.0158 49.5385L18.6854 45.595ZM26.4184 45.706L27.1785 49.6331L27.2392 49.6214L27.2995 49.6078L26.4184 45.706ZM27.9724 44.892L24.7724 42.492L24.7595 42.5092L24.7468 42.5265L27.9724 44.892ZM28.0094 41.71L24.8642 44.1813L24.909 44.2384L24.9559 44.2938L28.0094 41.71ZM26.7884 40.97L25.6895 44.8161L25.7127 44.8227L25.736 44.8291L26.7884 40.97ZM24.0504 40.452L23.3553 44.3911L23.4043 44.3998L23.4534 44.4072L24.0504 40.452ZM21.5344 40.008L20.814 43.9426L20.8266 43.9449L20.8393 43.9471L21.5344 40.008ZM17.5754 38.935L15.9509 42.5902L15.9509 42.5902L17.5754 38.935ZM15.6884 37.344L12.1107 39.1329L12.1496 39.2106L12.1918 39.2866L15.6884 37.344ZM15.8734 31.239L12.4814 29.119L12.4573 29.1577L12.434 29.1968L15.8734 31.239ZM18.3894 29.5L19.5825 33.3179L19.6185 33.3067L19.6543 33.2947L18.3894 29.5ZM31.0064 29.648H35.0064V26.2642L31.6694 25.7033L31.0064 29.648ZM31.0064 34.791V38.791H35.0064V34.791H31.0064ZM28.8604 34.791L25.0805 36.0994L26.0122 38.791H28.8604V34.791ZM27.8614 31.905L31.6414 30.5966L30.8638 28.3502L28.519 27.9594L27.8614 31.905ZM20.2764 31.757L19.3063 27.8764L19.3063 27.8764L20.2764 31.757ZM18.8334 32.571L15.6078 30.2055L15.6078 30.2055L18.8334 32.571ZM18.8704 35.716L15.8334 38.3192L15.8813 38.375L15.9312 38.4291L18.8704 35.716ZM20.3134 36.493L19.1771 40.3282L19.243 40.3477L19.3096 40.365L20.3134 36.493ZM23.7914 37.159L23.1434 41.1062L23.2289 41.1202L23.3149 41.1305L23.7914 37.159ZM24.9748 41.4228C26.5787 41.725 27.4502 42.0087 27.8232 42.1843L31.2296 34.9457C29.9253 34.3319 28.2561 33.9003 26.456 33.5612L24.9748 41.4228ZM27.8232 42.1843C27.9521 42.2449 27.95 42.2638 27.8839 42.2034C27.8087 42.1348 27.6909 41.9995 27.5966 41.7952L34.8603 38.4428C34.061 36.711 32.6504 35.6143 31.2296 34.9457L27.8232 42.1843ZM27.6223 41.8499C27.5686 41.738 27.5882 41.7324 27.6174 41.9049C27.6456 42.0717 27.6724 42.344 27.6724 42.746H35.6724C35.6724 41.3582 35.5066 39.7882 34.8345 38.3881L27.6223 41.8499ZM27.6724 42.746C27.6724 43.71 27.4877 44.0184 27.4922 44.011L34.2986 48.215C35.3392 46.5302 35.6724 44.594 35.6724 42.746H27.6724ZM27.4746 44.0398C27.5612 43.897 27.64 43.8488 27.6089 43.8699C27.5655 43.8994 27.4055 43.9951 27.0551 44.1029L29.4078 51.7491C31.2454 51.1837 33.1397 50.1275 34.3162 48.1862L27.4746 44.0398ZM27.0341 44.1094C26.3505 44.3239 25.0373 44.518 22.8664 44.518V52.518C25.3329 52.518 27.5964 52.3175 29.4288 51.7426L27.0341 44.1094ZM22.8664 44.518C21.8212 44.518 20.822 44.4636 19.8672 44.3575L18.9837 52.3085C20.2488 52.4491 21.5436 52.518 22.8664 52.518V44.518ZM19.7796 44.3487C18.8134 44.2628 17.5834 44.0959 16.07 43.8358L14.7149 51.7202C16.3587 52.0027 17.8175 52.2058 19.0713 52.3173L19.7796 44.3487ZM19.3924 47.778V42.45H11.3924V47.778H19.3924ZM15.3924 46.45H17.6124V38.45H15.3924V46.45ZM13.8267 43.7416L14.8997 46.8866L22.4712 44.3034L21.3982 41.1584L13.8267 43.7416ZM18.0158 49.5385C19.5782 49.8039 21.2361 49.928 22.9774 49.928V41.928C21.6107 41.928 20.4074 41.8301 19.3551 41.6515L18.0158 49.5385ZM22.9774 49.928C24.5678 49.928 26.0261 49.8562 27.1785 49.6331L25.6583 41.7789C25.2814 41.8518 24.4457 41.928 22.9774 41.928V49.928ZM27.2995 49.6078C28.3938 49.3607 30.0709 48.7945 31.1981 47.2575L24.7468 42.5265C25.0569 42.1036 25.3868 41.9017 25.5244 41.8297C25.6576 41.7599 25.6878 41.7703 25.5374 41.8042L27.2995 49.6078ZM31.1724 47.292C32.1897 45.9357 32.4164 44.3842 32.4164 43.19H24.4164C24.4164 43.3038 24.404 43.2797 24.435 43.1608C24.4678 43.0348 24.556 42.7806 24.7724 42.492L31.1724 47.292ZM32.4164 43.19C32.4164 42.1005 32.2144 40.4871 31.063 39.1262L24.9559 44.2938C24.6437 43.9249 24.5111 43.5748 24.4579 43.3811C24.4071 43.1965 24.4164 43.1139 24.4164 43.19H32.4164ZM31.1547 39.2387C30.2204 38.0496 28.9781 37.4211 27.8409 37.1109L25.736 44.8291C25.6841 44.8149 25.2558 44.6798 24.8642 44.1813L31.1547 39.2387ZM27.8873 37.1239C27.0947 36.8974 25.951 36.6936 24.6474 36.4968L23.4534 44.4072C24.7645 44.6051 25.4462 44.7466 25.6895 44.8161L27.8873 37.1239ZM24.7456 36.5129L22.2296 36.0689L20.8393 43.9471L23.3553 44.3911L24.7456 36.5129ZM22.2548 36.0734C20.6029 35.7709 19.6522 35.4808 19.2 35.2798L15.9509 42.5902C17.2746 43.1786 18.9633 43.6037 20.814 43.9426L22.2548 36.0734ZM19.2 35.2798C19.04 35.2086 18.9958 35.1661 19.0161 35.1832C19.027 35.1924 19.0524 35.2154 19.0848 35.2542C19.1176 35.2935 19.1525 35.3429 19.1851 35.4014L12.1918 39.2866C13.0872 40.8983 14.49 41.941 15.9509 42.5902L19.2 35.2798ZM19.2661 35.5551C19.3026 35.6281 19.2729 35.5976 19.237 35.3978C19.2017 35.2012 19.1704 34.8961 19.1704 34.458H11.1704C11.1704 35.9812 11.3701 37.6516 12.1107 39.1329L19.2661 35.5551ZM19.1704 34.458C19.1704 34.0025 19.2104 33.6889 19.2541 33.4892C19.2972 33.2917 19.3355 33.243 19.3128 33.2812L12.434 29.1968C11.4635 30.8314 11.1704 32.7032 11.1704 34.458H19.1704ZM19.2654 33.359C19.2341 33.409 19.2017 33.4483 19.1751 33.4757C19.1491 33.5025 19.1361 33.5101 19.1468 33.5028C19.1716 33.4856 19.2952 33.4077 19.5825 33.3179L17.1963 25.6821C15.4067 26.2413 13.629 27.2829 12.4814 29.119L19.2654 33.359ZM19.6543 33.2947C20.2397 33.0996 21.406 32.908 23.3844 32.908V24.908C21.0709 24.908 18.9072 25.111 17.1245 25.7053L19.6543 33.2947ZM23.3844 32.908C25.2418 32.908 27.55 33.1232 30.3435 33.5927L31.6694 25.7033C28.5922 25.1861 25.8191 24.908 23.3844 24.908V32.908ZM27.0064 29.648V34.791H35.0064V29.648H27.0064ZM31.0064 30.791H28.8604V38.791H31.0064V30.791ZM32.6404 33.4826L31.6414 30.5966L24.0815 33.2134L25.0805 36.0994L32.6404 33.4826ZM28.519 27.9594C26.702 27.6566 24.939 27.498 23.2364 27.498V35.498C24.4445 35.498 25.7649 35.6107 27.2038 35.8506L28.519 27.9594ZM23.2364 27.498C21.8429 27.498 20.4715 27.5851 19.3063 27.8764L21.2466 35.6376C21.4627 35.5835 22.0646 35.498 23.2364 35.498V27.498ZM19.3063 27.8764C18.1844 28.1569 16.664 28.7653 15.6078 30.2055L22.059 34.9365C21.7975 35.2931 21.5183 35.4863 21.363 35.5739C21.2161 35.6568 21.1545 35.6606 21.2466 35.6376L19.3063 27.8764ZM15.6078 30.2055C14.6367 31.5297 14.4264 33.0275 14.4264 34.162H22.4264C22.4264 34.0682 22.4367 34.1074 22.4034 34.2376C22.3684 34.3742 22.2781 34.6378 22.0591 34.9365L15.6078 30.2055ZM14.4264 34.162C14.4264 35.3313 14.6638 36.9547 15.8334 38.3192L21.9075 33.1128C22.1971 33.4507 22.3281 33.7757 22.3835 33.9696C22.4357 34.1521 22.4264 34.2346 22.4264 34.162H14.4264ZM15.9312 38.4291C16.9246 39.5053 18.1907 40.0359 19.1771 40.3282L21.4498 32.6578C21.313 32.6173 21.2934 32.5986 21.3496 32.6289C21.405 32.6587 21.5925 32.7676 21.8096 33.0029L15.9312 38.4291ZM19.3096 40.365C20.1707 40.5882 21.492 40.835 23.1434 41.1062L24.4395 33.2118C22.7855 32.9403 21.7882 32.7431 21.3173 32.621L19.3096 40.365ZM23.3149 41.1305C23.788 41.1873 24.2985 41.2747 24.8477 41.3967L26.5832 33.5873C25.8004 33.4133 25.0281 33.2787 24.268 33.1875L23.3149 41.1305ZM56.402 45.965H60.402V43.3577L58.0166 42.3053L56.402 45.965ZM56.402 48V52H60.402V48H56.402ZM50.778 48H46.778V52H50.778V48ZM49.705 32.608L46.9285 35.4874L46.9808 35.5378L47.0348 35.5863L49.705 32.608ZM44.081 31.942L43.0574 28.0752L43.043 28.079L43.0285 28.0829L44.081 31.942ZM40.492 33.126L39.1392 29.3617L36.492 30.313V33.126H40.492ZM40.492 44.855H36.492V47.4623L38.8775 48.5147L40.492 44.855ZM43.008 45.965H47.008V43.3577L44.6226 42.3053L43.008 45.965ZM43.008 48V52H47.008V48H43.008ZM34.868 48H30.868V52H34.868V48ZM34.868 45.965L33.2535 42.3053L30.868 43.3577V45.965H34.868ZM37.384 44.855L38.9986 48.5147L41.384 47.4623V44.855H37.384ZM37.384 24.875H41.384V22.1962L38.907 21.1763L37.384 24.875ZM34.868 23.839H30.868V26.5178L33.345 27.5377L34.868 23.839ZM34.868 21.73V17.73H30.868V21.73H34.868ZM40.492 21.73H44.492V17.73H40.492V21.73ZM40.492 30.721H36.492V37.25L42.3088 34.2846L40.492 30.721ZM44.081 29.352L45.0113 33.2423L45.041 33.2352L45.0706 33.2277L44.081 29.352ZM51.333 29.648L49.4309 33.1668L49.4682 33.1869L49.5058 33.2063L51.333 29.648ZM53.294 31.942L49.5451 33.3369L49.5505 33.3515L49.5561 33.366L53.294 31.942ZM53.886 44.855H49.886V47.4623L52.2715 48.5147L53.886 44.855ZM52.402 45.965V48H60.402V45.965H52.402ZM56.402 44H50.778V52H56.402V44ZM54.778 48V35.753H46.778V48H54.778ZM54.778 35.753C54.778 33.747 54.2922 31.3485 52.3752 29.6297L47.0348 35.5863C46.9299 35.4922 46.8517 35.3945 46.7978 35.3096C46.7454 35.2271 46.726 35.1727 46.724 35.1669C46.7226 35.1625 46.7369 35.2035 46.7512 35.3035C46.7655 35.4036 46.778 35.5509 46.778 35.753H54.778ZM52.4816 29.7286C50.784 28.0917 48.5952 27.609 46.634 27.609V35.609C46.9964 35.609 47.158 35.6548 47.1819 35.6625C47.19 35.6652 47.1619 35.6568 47.1106 35.627C47.058 35.5963 46.9938 35.5503 46.9285 35.4874L52.4816 29.7286ZM46.634 27.609C45.4235 27.609 44.2285 27.7652 43.0574 28.0752L45.1046 35.8088C45.6109 35.6748 46.1179 35.609 46.634 35.609V27.609ZM43.0285 28.0829C42.0572 28.3478 40.7405 28.7863 39.1392 29.3617L41.8448 36.8903C43.4009 36.3311 44.4768 35.9802 45.1335 35.8011L43.0285 28.0829ZM36.492 33.126V44.855H44.492V33.126H36.492ZM38.8775 48.5147L41.3935 49.6247L44.6226 42.3053L42.1066 41.1953L38.8775 48.5147ZM39.008 45.965V48H47.008V45.965H39.008ZM43.008 44H34.868V52H43.008V44ZM38.868 48V45.965H30.868V48H38.868ZM36.4826 49.6247L38.9986 48.5147L35.7695 41.1953L33.2535 42.3053L36.4826 49.6247ZM41.384 44.855V24.875H33.384V44.855H41.384ZM38.907 21.1763L36.391 20.1403L33.345 27.5377L35.861 28.5737L38.907 21.1763ZM38.868 23.839V21.73H30.868V23.839H38.868ZM34.868 25.73H40.492V17.73H34.868V25.73ZM36.492 21.73V30.721H44.492V21.73H36.492ZM42.3088 34.2846C43.3419 33.7579 44.2403 33.4267 45.0113 33.2423L43.1507 25.4617C41.6524 25.82 40.1581 26.4014 38.6753 27.1574L42.3088 34.2846ZM45.0706 33.2277C45.9032 33.0151 46.7547 32.908 47.633 32.908V24.908C46.094 24.908 44.5775 25.0969 43.0915 25.4763L45.0706 33.2277ZM47.633 32.908C48.8275 32.908 49.322 33.1079 49.4309 33.1668L53.2351 26.1292C51.5187 25.2014 49.5465 24.908 47.633 24.908V32.908ZM49.5058 33.2063C49.512 33.2095 49.5063 33.2071 49.4944 33.1977C49.4823 33.1882 49.4727 33.1784 49.4673 33.1721C49.4622 33.1662 49.4677 33.1712 49.4808 33.1941C49.4943 33.2176 49.5176 33.2629 49.5451 33.3369L57.0429 30.5471C56.3389 28.6552 55.0553 27.0629 53.1602 26.0897L49.5058 33.2063ZM49.5561 33.366C49.7049 33.7566 49.886 34.6133 49.886 36.16H57.886C57.886 34.1547 57.6725 32.1994 57.032 30.518L49.5561 33.366ZM49.886 36.16V44.855H57.886V36.16H49.886ZM52.2715 48.5147L54.7875 49.6247L58.0166 42.3053L55.5006 41.1953L52.2715 48.5147ZM75.4232 31.276L72.703 34.2087L72.725 34.2291L72.7473 34.2492L75.4232 31.276ZM75.4232 46.187L78.1203 49.1409L78.1223 49.1391L75.4232 46.187ZM61.7702 46.187L59.05 49.1197L59.072 49.1401L59.0943 49.1602L61.7702 46.187ZM61.7702 31.276L64.4673 34.2299L64.4693 34.2281L61.7702 31.276ZM65.0632 32.201L63.3552 28.584L63.3353 28.5934L63.3156 28.603L65.0632 32.201ZM63.1022 34.384L59.4256 32.8083L59.4096 32.8456L59.3944 32.8832L63.1022 34.384ZM63.1022 43.042L59.3944 44.5428L59.4096 44.5804L59.4256 44.6177L63.1022 43.042ZM65.0632 45.225L63.3156 48.823L63.3353 48.8326L63.3552 48.842L65.0632 45.225ZM72.1302 45.225L70.4222 41.608L70.4023 41.6174L70.3826 41.627L72.1302 45.225ZM74.0912 43.042L70.4146 41.4663L70.3986 41.5036L70.3834 41.5412L74.0912 43.042ZM74.0912 34.384L70.3834 35.8848L70.3986 35.9224L70.4146 35.9597L74.0912 34.384ZM72.1302 32.201L70.3826 35.799L70.4023 35.8086L70.4222 35.818L72.1302 32.201ZM68.6152 32.908C70.6786 32.908 71.897 33.4611 72.703 34.2087L78.1434 28.3433C75.5454 25.9336 72.2252 24.908 68.6152 24.908V32.908ZM72.7473 34.2492C73.3019 34.7483 74.0132 35.9078 74.0132 38.713H82.0132C82.0132 34.7102 80.9979 30.9117 78.0991 28.3028L72.7473 34.2492ZM74.0132 38.713C74.0132 41.5123 73.3042 42.7045 72.7241 43.2349L78.1223 49.1391C80.9955 46.5122 82.0132 42.7217 82.0132 38.713H74.0132ZM72.7261 43.2331C71.9218 43.9674 70.695 44.518 68.6152 44.518V52.518C72.2087 52.518 75.5206 51.5146 78.1203 49.1409L72.7261 43.2331ZM68.6152 44.518C66.5378 44.518 65.2842 43.9681 64.4461 43.2138L59.0943 49.1602C61.7095 51.5139 65.0193 52.518 68.6152 52.518V44.518ZM64.4904 43.2543C63.9222 42.7273 63.2172 41.5277 63.2172 38.713H55.2172C55.2172 42.7063 56.2142 46.4894 59.05 49.1197L64.4904 43.2543ZM63.2172 38.713C63.2172 35.8922 63.9246 34.7254 64.4673 34.2299L59.0731 28.3221C56.2118 30.9346 55.2172 34.7258 55.2172 38.713H63.2172ZM64.4693 34.2281C65.3089 33.4605 66.5541 32.908 68.6152 32.908V24.908C65.0029 24.908 61.6848 25.9342 59.0711 28.3239L64.4693 34.2281ZM68.6152 27.572C66.8172 27.572 64.9785 27.8174 63.3552 28.584L66.7712 35.818C66.9238 35.7459 67.4532 35.572 68.6152 35.572V27.572ZM63.3156 28.603C61.4401 29.5139 60.1788 31.0508 59.4256 32.8083L66.7788 35.9597C66.8544 35.7833 66.907 35.7278 66.9011 35.7343C66.8987 35.7371 66.8874 35.7488 66.8674 35.7639C66.8473 35.7792 66.8271 35.7911 66.8108 35.799L63.3156 28.603ZM59.3944 32.8832C58.6963 34.608 58.4732 36.6415 58.4732 38.713H66.4732C66.4732 37.0845 66.6694 36.232 66.81 35.8848L59.3944 32.8832ZM58.4732 38.713C58.4732 40.7845 58.6963 42.818 59.3944 44.5428L66.81 41.5412C66.6694 41.194 66.4732 40.3415 66.4732 38.713H58.4732ZM59.4256 44.6177C60.1788 46.3752 61.4401 47.9121 63.3156 48.823L66.8108 41.627C66.8271 41.6349 66.8473 41.6468 66.8674 41.662C66.8874 41.6772 66.8987 41.6889 66.9011 41.6917C66.907 41.6982 66.8544 41.6427 66.7788 41.4663L59.4256 44.6177ZM63.3552 48.842C64.9785 49.6086 66.8172 49.854 68.6152 49.854V41.854C67.4532 41.854 66.9238 41.6801 66.7712 41.608L63.3552 48.842ZM68.6152 49.854C70.404 49.854 72.2544 49.6115 73.8778 48.823L70.3826 41.627C70.2793 41.6771 69.7864 41.854 68.6152 41.854V49.854ZM73.8382 48.842C75.7614 47.9338 77.0585 46.3721 77.799 44.5428L70.3834 41.5412C70.353 41.6163 70.3285 41.6607 70.3155 41.6822C70.3028 41.703 70.3001 41.7035 70.3108 41.6917C70.3218 41.6794 70.3401 41.6617 70.3646 41.6435C70.389 41.6253 70.41 41.6138 70.4222 41.608L73.8382 48.842ZM77.7678 44.6177C78.519 42.8649 78.7572 40.8008 78.7572 38.713H70.7572C70.7572 40.3252 70.5514 41.1471 70.4146 41.4663L77.7678 44.6177ZM78.7572 38.713C78.7572 36.6252 78.519 34.5611 77.7678 32.8083L70.4146 35.9597C70.5514 36.2789 70.7572 37.1008 70.7572 38.713H78.7572ZM77.799 32.8832C77.0585 31.0539 75.7614 29.4922 73.8382 28.584L70.4222 35.818C70.41 35.8122 70.389 35.8007 70.3646 35.7825C70.3401 35.7643 70.3218 35.7466 70.3108 35.7343C70.3001 35.7225 70.3028 35.723 70.3155 35.7438C70.3285 35.7653 70.353 35.8097 70.3834 35.8848L77.799 32.8832ZM73.8778 28.603C72.2544 27.8145 70.404 27.572 68.6152 27.572V35.572C69.7864 35.572 70.2793 35.7489 70.3826 35.799L73.8778 28.603ZM109.947 29.426H113.947V25.426H109.947V29.426ZM109.947 31.535L111.686 35.1372L113.947 34.0457V31.535H109.947ZM107.801 32.571L106.062 28.9688L104.541 29.7033L104.006 31.3061L107.801 32.571ZM102.658 48V52H105.541L106.453 49.2649L102.658 48ZM98.8841 48L95.0714 49.2097L95.9567 52H98.8841V48ZM94.7401 34.939L98.5528 33.7293L94.7401 21.7125L90.9274 33.7293L94.7401 34.939ZM90.5961 48V52H93.5235L94.4088 49.2097L90.5961 48ZM86.8221 48L83.0274 49.2649L83.939 52H86.8221V48ZM81.6791 32.571L85.4738 31.3061L84.9396 29.7033L83.4181 28.9688L81.6791 32.571ZM79.5331 31.535H75.5331V34.0457L77.7941 35.1372L79.5331 31.535ZM79.5331 29.426V25.426H75.5331V29.426H79.5331ZM87.4141 29.426H91.4141V25.426H87.4141V29.426ZM87.4141 31.535L88.9371 35.2337L91.4141 34.2138V31.535H87.4141ZM84.8981 32.571L83.3751 28.8723L79.9415 30.2861L81.0965 33.8152L84.8981 32.571ZM88.8941 44.781L85.0925 46.0252L88.9513 57.8159L92.7064 45.9917L88.8941 44.781ZM93.3711 30.684V26.684H90.4446L89.5587 29.4732L93.3711 30.684ZM96.5901 30.684L100.401 29.4675L99.512 26.684H96.5901V30.684ZM101.067 44.707L97.2566 45.9235L100.991 57.6203L104.863 45.9684L101.067 44.707ZM105.1 32.571L108.896 33.8324L110.072 30.2926L106.623 28.8723L105.1 32.571ZM102.584 31.535H98.5841V34.2138L101.061 35.2337L102.584 31.535ZM102.584 29.426V25.426H98.5841V29.426H102.584ZM105.947 29.426V31.535H113.947V29.426H105.947ZM108.208 27.9328L106.062 28.9688L109.54 36.1732L111.686 35.1372L108.208 27.9328ZM104.006 31.3061L98.8634 46.7351L106.453 49.2649L111.596 33.8359L104.006 31.3061ZM102.658 44H98.8841V52H102.658V44ZM102.697 46.7903L98.5528 33.7293L90.9274 36.1487L95.0714 49.2097L102.697 46.7903ZM90.9274 33.7293L86.7834 46.7903L94.4088 49.2097L98.5528 36.1487L90.9274 33.7293ZM90.5961 44H86.8221V52H90.5961V44ZM90.6168 46.7351L85.4738 31.3061L77.8844 33.8359L83.0274 49.2649L90.6168 46.7351ZM83.4181 28.9688L81.2721 27.9328L77.7941 35.1372L79.9401 36.1732L83.4181 28.9688ZM83.5331 31.535V29.426H75.5331V31.535H83.5331ZM79.5331 33.426H87.4141V25.426H79.5331V33.426ZM83.4141 29.426V31.535H91.4141V29.426H83.4141ZM85.8911 27.8363L83.3751 28.8723L86.4211 36.2697L88.9371 35.2337L85.8911 27.8363ZM81.0965 33.8152L85.0925 46.0252L92.6957 43.5368L88.6997 31.3268L81.0965 33.8152ZM92.7064 45.9917L97.1834 31.8947L89.5587 29.4732L85.0817 43.5703L92.7064 45.9917ZM93.3711 34.684H96.5901V26.684H93.3711V34.684ZM92.7796 31.9005L97.2566 45.9235L104.878 43.4905L100.401 29.4675L92.7796 31.9005ZM104.863 45.9684L108.896 33.8324L101.304 31.3096L97.2712 43.4456L104.863 45.9684ZM106.623 28.8723L104.107 27.8363L101.061 35.2337L103.577 36.2697L106.623 28.8723ZM106.584 31.535V29.426H98.5841V31.535H106.584ZM102.584 33.426H109.947V25.426H102.584V33.426Z" fill="black"/>
</svg>
