<svg width="104" height="115" viewBox="0 0 104 115" fill="none" xmlns="http://www.w3.org/2000/svg">
<g filter="url(#filter0_d_206_59)">
<path d="M79.2023 8.5L56.9023 33.7L79.2023 59.5L86.1023 62.5V68H60.7023V62.5L68.1023 59.5L50.8023 39.5L33.5023 59.5L40.9023 62.5V68H16.9023V62.5L23.8023 59.5L46.3023 34.2L24.2023 8.6L17.3023 5.7V-7.15256e-07H42.7023V5.7L35.3023 8.6L52.5023 28.6L69.7023 8.5L62.3023 5.5V-7.15256e-07H86.1023V5.5L79.2023 8.5ZM15.2154 95.492C16.9174 95.8127 18.1878 96.1703 19.0264 96.565C19.8651 96.9597 20.4324 97.4777 20.7284 98.119C21.0244 98.7357 21.1724 99.6113 21.1724 100.746C21.1724 102.152 20.9134 103.274 20.3954 104.113C19.9021 104.927 19.0141 105.531 17.7314 105.926C16.4734 106.321 14.6851 106.518 12.3664 106.518C11.1824 106.518 10.0354 106.456 8.92543 106.333C7.81543 106.234 6.4711 106.049 4.89243 105.778V100.45H7.11243L8.18543 103.595C9.49276 103.817 10.9234 103.928 12.4774 103.928C14.0068 103.928 15.1538 103.854 15.9184 103.706C16.6831 103.533 17.2011 103.262 17.4724 102.892C17.7684 102.497 17.9164 101.93 17.9164 101.19C17.9164 100.524 17.7808 100.031 17.5094 99.71C17.2381 99.3647 16.8311 99.118 16.2884 98.97C15.7704 98.822 14.8578 98.6493 13.5504 98.452L11.0344 98.008C9.2831 97.6873 7.96343 97.3297 7.07543 96.935C6.18743 96.5403 5.55843 96.01 5.18843 95.344C4.8431 94.6533 4.67043 93.6913 4.67043 92.458C4.67043 91.1013 4.90476 90.0283 5.37343 89.239C5.86676 88.4497 6.70543 87.87 7.88943 87.5C9.07343 87.1053 10.7384 86.908 12.8844 86.908C15.0304 86.908 17.5711 87.1547 20.5064 87.648V92.791H18.3604L17.3614 89.905C15.7334 89.6337 14.1918 89.498 12.7364 89.498C11.4538 89.498 10.4671 89.5843 9.77643 89.757C9.08576 89.9297 8.60476 90.201 8.33343 90.571C8.0621 90.941 7.92643 91.4713 7.92643 92.162C7.92643 92.8527 8.07443 93.3707 8.37043 93.716C8.66643 94.0367 9.14743 94.2957 9.81343 94.493C10.4794 94.6657 11.6388 94.8877 13.2914 95.159C13.9081 95.233 14.5494 95.344 15.2154 95.492ZM45.902 103.965V106H40.278V93.753C40.278 92.2977 39.9203 91.2493 39.205 90.608C38.5144 89.942 37.4907 89.609 36.134 89.609C35.2707 89.609 34.4197 89.72 33.581 89.942C32.767 90.164 31.5707 90.5587 29.992 91.126V102.855L32.508 103.965V106H24.368V103.965L26.884 102.855V82.875L24.368 81.839V79.73H29.992V88.721C31.25 88.0797 32.4463 87.6233 33.581 87.352C34.7403 87.056 35.9243 86.908 37.133 86.908C38.687 86.908 39.9203 87.1547 40.833 87.648C41.7457 88.1167 42.3993 88.8813 42.794 89.942C43.1887 90.978 43.386 92.384 43.386 94.16V102.855L45.902 103.965ZM58.1152 86.908C60.9519 86.908 63.2212 87.6973 64.9232 89.276C66.6499 90.83 67.5132 93.309 67.5132 96.713C67.5132 100.117 66.6499 102.608 64.9232 104.187C63.2212 105.741 60.9519 106.518 58.1152 106.518C55.2785 106.518 52.9969 105.741 51.2702 104.187C49.5682 102.608 48.7172 100.117 48.7172 96.713C48.7172 93.309 49.5682 90.83 51.2702 89.276C52.9969 87.6973 55.2785 86.908 58.1152 86.908ZM58.1152 89.572C56.6352 89.572 55.4512 89.7817 54.5632 90.201C53.6999 90.6203 53.0462 91.348 52.6022 92.384C52.1829 93.42 51.9732 94.863 51.9732 96.713C51.9732 98.563 52.1829 100.006 52.6022 101.042C53.0462 102.078 53.6999 102.806 54.5632 103.225C55.4512 103.644 56.6352 103.854 58.1152 103.854C59.5952 103.854 60.7669 103.644 61.6302 103.225C62.5182 102.806 63.1719 102.078 63.5912 101.042C64.0352 100.006 64.2572 98.563 64.2572 96.713C64.2572 94.863 64.0352 93.42 63.5912 92.384C63.1719 91.348 62.5182 90.6203 61.6302 90.201C60.7669 89.7817 59.5952 89.572 58.1152 89.572ZM99.4471 87.426V89.535L97.3011 90.571L92.1581 106H88.3841L84.2401 92.939L80.0961 106H76.3221L71.1791 90.571L69.0331 89.535V87.426H76.9141V89.535L74.3981 90.571L78.3941 102.781L82.8711 88.684H86.0901L90.5671 102.707L94.6001 90.571L92.0841 89.535V87.426H99.4471Z" fill="white"/>
</g>
<defs>
<filter id="filter0_d_206_59" x="0.670441" y="0" width="102.777" height="114.518" filterUnits="userSpaceOnUse" color-interpolation-filters="sRGB">
<feFlood flood-opacity="0" result="BackgroundImageFix"/>
<feColorMatrix in="SourceAlpha" type="matrix" values="0 0 0 0 0 0 0 0 0 0 0 0 0 0 0 0 0 0 127 0" result="hardAlpha"/>
<feOffset dy="4"/>
<feGaussianBlur stdDeviation="2"/>
<feComposite in2="hardAlpha" operator="out"/>
<feColorMatrix type="matrix" values="0 0 0 0 0 0 0 0 0 0 0 0 0 0 0 0 0 0 0.25 0"/>
<feBlend mode="normal" in2="BackgroundImageFix" result="effect1_dropShadow_206_59"/>
<feBlend mode="normal" in="SourceGraphic" in2="effect1_dropShadow_206_59" result="shape"/>
</filter>
</defs>
</svg>
